<?xml version="1.0" encoding="utf-8" standalone="no"?>
<!DOCTYPE svg PUBLIC "-//W3C//DTD SVG 1.1//EN"
  "http://www.w3.org/Graphics/SVG/1.1/DTD/svg11.dtd">
<svg xmlns:xlink="http://www.w3.org/1999/xlink" width="792pt" height="360pt" viewBox="0 0 792 360" xmlns="http://www.w3.org/2000/svg" version="1.1">
 <metadata>
  <rdf:RDF xmlns:dc="http://purl.org/dc/elements/1.1/" xmlns:cc="http://creativecommons.org/ns#" xmlns:rdf="http://www.w3.org/1999/02/22-rdf-syntax-ns#">
   <cc:Work>
    <dc:type rdf:resource="http://purl.org/dc/dcmitype/StillImage"/>
    <dc:date>2026-06-12T22:04:31.185225</dc:date>
    <dc:format>image/svg+xml</dc:format>
    <dc:creator>
     <cc:Agent>
      <dc:title>Matplotlib v3.11.0, https://matplotlib.org/</dc:title>
     </cc:Agent>
    </dc:creator>
   </cc:Work>
  </rdf:RDF>
 </metadata>
 <defs>
  <style type="text/css">*{stroke-linejoin: round; stroke-linecap: butt}</style>
 </defs>
 <g id="figure_1">
  <g id="patch_1">
   <path d="M 0 360 
L 792 360 
L 792 0 
L 0 0 
z
" style="fill: #11151a"/>
  </g>
  <g id="axes_1">
   <g id="patch_2">
    <path d="M 99 316.8 
L 712.8 316.8 
L 712.8 10.8 
L 99 10.8 
z
" style="fill: #11151a"/>
   </g>
   <g id="matplotlib.axis_1">
    <g id="xtick_1">
     <g id="line2d_1">
      <path d="M 126.894152 316.8 
L 126.894152 10.8 
" clip-path="url(#p11cc6b03d0)" style="fill: none; stroke: #2a3340; stroke-opacity: 0.5; stroke-width: 0.8; stroke-linecap: square"/>
     </g>
     <g id="line2d_2">
      <defs>
       <path id="m46b18c3eb1" d="M 0 0 
L 0 3.5 
" style="stroke: #8b97a7; stroke-width: 0.8"/>
      </defs>
      <g>
       <use xlink:href="#m46b18c3eb1" x="126.894152" y="316.8" style="fill: #8b97a7; stroke: #8b97a7; stroke-width: 0.8"/>
      </g>
     </g>
     <g id="text_1">
      <!-- 0 -->
      <g style="fill: #8b97a7" transform="translate(123.394777 332.157422) scale(0.11 -0.11)">
       <defs>
        <path id="DejaVuSans-13" d="M 2034 4250 
Q 1547 4250 1301 3770 
Q 1056 3291 1056 2328 
Q 1056 1369 1301 889 
Q 1547 409 2034 409 
Q 2525 409 2770 889 
Q 3016 1369 3016 2328 
Q 3016 3291 2770 3770 
Q 2525 4250 2034 4250 
z
M 2034 4750 
Q 2819 4750 3233 4129 
Q 3647 3509 3647 2328 
Q 3647 1150 3233 529 
Q 2819 -91 2034 -91 
Q 1250 -91 836 529 
Q 422 1150 422 2328 
Q 422 3509 836 4129 
Q 1250 4750 2034 4750 
z
" transform="scale(0.015625)"/>
       </defs>
       <use xlink:href="#DejaVuSans-13"/>
      </g>
     </g>
    </g>
    <g id="xtick_2">
     <g id="line2d_3">
      <path d="M 219.782929 316.8 
L 219.782929 10.8 
" clip-path="url(#p11cc6b03d0)" style="fill: none; stroke: #2a3340; stroke-opacity: 0.5; stroke-width: 0.8; stroke-linecap: square"/>
     </g>
     <g id="line2d_4">
      <g>
       <use xlink:href="#m46b18c3eb1" x="219.782929" y="316.8" style="fill: #8b97a7; stroke: #8b97a7; stroke-width: 0.8"/>
      </g>
     </g>
     <g id="text_2">
      <!-- 2 -->
      <g style="fill: #8b97a7" transform="translate(216.283554 332.157422) scale(0.11 -0.11)">
       <defs>
        <path id="DejaVuSans-15" d="M 1228 531 
L 3431 531 
L 3431 0 
L 469 0 
L 469 531 
Q 828 903 1448 1529 
Q 2069 2156 2228 2338 
Q 2531 2678 2651 2914 
Q 2772 3150 2772 3378 
Q 2772 3750 2511 3984 
Q 2250 4219 1831 4219 
Q 1534 4219 1204 4116 
Q 875 4013 500 3803 
L 500 4441 
Q 881 4594 1212 4672 
Q 1544 4750 1819 4750 
Q 2544 4750 2975 4387 
Q 3406 4025 3406 3419 
Q 3406 3131 3298 2873 
Q 3191 2616 2906 2266 
Q 2828 2175 2409 1742 
Q 1991 1309 1228 531 
z
" transform="scale(0.015625)"/>
       </defs>
       <use xlink:href="#DejaVuSans-15"/>
      </g>
     </g>
    </g>
    <g id="xtick_3">
     <g id="line2d_5">
      <path d="M 312.671706 316.8 
L 312.671706 10.8 
" clip-path="url(#p11cc6b03d0)" style="fill: none; stroke: #2a3340; stroke-opacity: 0.5; stroke-width: 0.8; stroke-linecap: square"/>
     </g>
     <g id="line2d_6">
      <g>
       <use xlink:href="#m46b18c3eb1" x="312.671706" y="316.8" style="fill: #8b97a7; stroke: #8b97a7; stroke-width: 0.8"/>
      </g>
     </g>
     <g id="text_3">
      <!-- 4 -->
      <g style="fill: #8b97a7" transform="translate(309.172331 332.157422) scale(0.11 -0.11)">
       <defs>
        <path id="DejaVuSans-17" d="M 2419 4116 
L 825 1625 
L 2419 1625 
L 2419 4116 
z
M 2253 4666 
L 3047 4666 
L 3047 1625 
L 3713 1625 
L 3713 1100 
L 3047 1100 
L 3047 0 
L 2419 0 
L 2419 1100 
L 313 1100 
L 313 1709 
L 2253 4666 
z
" transform="scale(0.015625)"/>
       </defs>
       <use xlink:href="#DejaVuSans-17"/>
      </g>
     </g>
    </g>
    <g id="xtick_4">
     <g id="line2d_7">
      <path d="M 405.560483 316.8 
L 405.560483 10.8 
" clip-path="url(#p11cc6b03d0)" style="fill: none; stroke: #2a3340; stroke-opacity: 0.5; stroke-width: 0.8; stroke-linecap: square"/>
     </g>
     <g id="line2d_8">
      <g>
       <use xlink:href="#m46b18c3eb1" x="405.560483" y="316.8" style="fill: #8b97a7; stroke: #8b97a7; stroke-width: 0.8"/>
      </g>
     </g>
     <g id="text_4">
      <!-- 6 -->
      <g style="fill: #8b97a7" transform="translate(402.061108 332.157422) scale(0.11 -0.11)">
       <defs>
        <path id="DejaVuSans-19" d="M 2113 2584 
Q 1688 2584 1439 2293 
Q 1191 2003 1191 1497 
Q 1191 994 1439 701 
Q 1688 409 2113 409 
Q 2538 409 2786 701 
Q 3034 994 3034 1497 
Q 3034 2003 2786 2293 
Q 2538 2584 2113 2584 
z
M 3366 4563 
L 3366 3988 
Q 3128 4100 2886 4159 
Q 2644 4219 2406 4219 
Q 1781 4219 1451 3797 
Q 1122 3375 1075 2522 
Q 1259 2794 1537 2939 
Q 1816 3084 2150 3084 
Q 2853 3084 3261 2657 
Q 3669 2231 3669 1497 
Q 3669 778 3244 343 
Q 2819 -91 2113 -91 
Q 1303 -91 875 529 
Q 447 1150 447 2328 
Q 447 3434 972 4092 
Q 1497 4750 2381 4750 
Q 2619 4750 2861 4703 
Q 3103 4656 3366 4563 
z
" transform="scale(0.015625)"/>
       </defs>
       <use xlink:href="#DejaVuSans-19"/>
      </g>
     </g>
    </g>
    <g id="xtick_5">
     <g id="line2d_9">
      <path d="M 498.44926 316.8 
L 498.44926 10.8 
" clip-path="url(#p11cc6b03d0)" style="fill: none; stroke: #2a3340; stroke-opacity: 0.5; stroke-width: 0.8; stroke-linecap: square"/>
     </g>
     <g id="line2d_10">
      <g>
       <use xlink:href="#m46b18c3eb1" x="498.44926" y="316.8" style="fill: #8b97a7; stroke: #8b97a7; stroke-width: 0.8"/>
      </g>
     </g>
     <g id="text_5">
      <!-- 8 -->
      <g style="fill: #8b97a7" transform="translate(494.949885 332.157422) scale(0.11 -0.11)">
       <defs>
        <path id="DejaVuSans-1b" d="M 2034 2216 
Q 1584 2216 1326 1975 
Q 1069 1734 1069 1313 
Q 1069 891 1326 650 
Q 1584 409 2034 409 
Q 2484 409 2743 651 
Q 3003 894 3003 1313 
Q 3003 1734 2745 1975 
Q 2488 2216 2034 2216 
z
M 1403 2484 
Q 997 2584 770 2862 
Q 544 3141 544 3541 
Q 544 4100 942 4425 
Q 1341 4750 2034 4750 
Q 2731 4750 3128 4425 
Q 3525 4100 3525 3541 
Q 3525 3141 3298 2862 
Q 3072 2584 2669 2484 
Q 3125 2378 3379 2068 
Q 3634 1759 3634 1313 
Q 3634 634 3220 271 
Q 2806 -91 2034 -91 
Q 1263 -91 848 271 
Q 434 634 434 1313 
Q 434 1759 690 2068 
Q 947 2378 1403 2484 
z
M 1172 3481 
Q 1172 3119 1398 2916 
Q 1625 2713 2034 2713 
Q 2441 2713 2670 2916 
Q 2900 3119 2900 3481 
Q 2900 3844 2670 4047 
Q 2441 4250 2034 4250 
Q 1625 4250 1398 4047 
Q 1172 3844 1172 3481 
z
" transform="scale(0.015625)"/>
       </defs>
       <use xlink:href="#DejaVuSans-1b"/>
      </g>
     </g>
    </g>
    <g id="xtick_6">
     <g id="line2d_11">
      <path d="M 591.338038 316.8 
L 591.338038 10.8 
" clip-path="url(#p11cc6b03d0)" style="fill: none; stroke: #2a3340; stroke-opacity: 0.5; stroke-width: 0.8; stroke-linecap: square"/>
     </g>
     <g id="line2d_12">
      <g>
       <use xlink:href="#m46b18c3eb1" x="591.338038" y="316.8" style="fill: #8b97a7; stroke: #8b97a7; stroke-width: 0.8"/>
      </g>
     </g>
     <g id="text_6">
      <!-- 10 -->
      <g style="fill: #8b97a7" transform="translate(584.339288 332.157422) scale(0.11 -0.11)">
       <defs>
        <path id="DejaVuSans-14" d="M 794 531 
L 1825 531 
L 1825 4091 
L 703 3866 
L 703 4441 
L 1819 4666 
L 2450 4666 
L 2450 531 
L 3481 531 
L 3481 0 
L 794 0 
L 794 531 
z
" transform="scale(0.015625)"/>
       </defs>
       <use xlink:href="#DejaVuSans-14"/>
       <use xlink:href="#DejaVuSans-13" transform="translate(63.625 0)"/>
      </g>
     </g>
    </g>
    <g id="xtick_7">
     <g id="line2d_13">
      <path d="M 684.226815 316.8 
L 684.226815 10.8 
" clip-path="url(#p11cc6b03d0)" style="fill: none; stroke: #2a3340; stroke-opacity: 0.5; stroke-width: 0.8; stroke-linecap: square"/>
     </g>
     <g id="line2d_14">
      <g>
       <use xlink:href="#m46b18c3eb1" x="684.226815" y="316.8" style="fill: #8b97a7; stroke: #8b97a7; stroke-width: 0.8"/>
      </g>
     </g>
     <g id="text_7">
      <!-- 12 -->
      <g style="fill: #8b97a7" transform="translate(677.228065 332.157422) scale(0.11 -0.11)">
       <use xlink:href="#DejaVuSans-14"/>
       <use xlink:href="#DejaVuSans-15" transform="translate(63.625 0)"/>
      </g>
     </g>
    </g>
    <g id="text_8">
     <!-- time (minutes) -->
     <g style="fill: #8b97a7" transform="translate(365.1725 347.158281) scale(0.11 -0.11)">
      <defs>
       <path id="DejaVuSans-57" d="M 1172 4494 
L 1172 3500 
L 2356 3500 
L 2356 3053 
L 1172 3053 
L 1172 1153 
Q 1172 725 1289 603 
Q 1406 481 1766 481 
L 2356 481 
L 2356 0 
L 1766 0 
Q 1100 0 847 248 
Q 594 497 594 1153 
L 594 3053 
L 172 3053 
L 172 3500 
L 594 3500 
L 594 4494 
L 1172 4494 
z
" transform="scale(0.015625)"/>
       <path id="DejaVuSans-4c" d="M 603 3500 
L 1178 3500 
L 1178 0 
L 603 0 
L 603 3500 
z
M 603 4863 
L 1178 4863 
L 1178 4134 
L 603 4134 
L 603 4863 
z
" transform="scale(0.015625)"/>
       <path id="DejaVuSans-50" d="M 3328 2828 
Q 3544 3216 3844 3400 
Q 4144 3584 4550 3584 
Q 5097 3584 5394 3201 
Q 5691 2819 5691 2113 
L 5691 0 
L 5113 0 
L 5113 2094 
Q 5113 2597 4934 2840 
Q 4756 3084 4391 3084 
Q 3944 3084 3684 2787 
Q 3425 2491 3425 1978 
L 3425 0 
L 2847 0 
L 2847 2094 
Q 2847 2600 2669 2842 
Q 2491 3084 2119 3084 
Q 1678 3084 1418 2786 
Q 1159 2488 1159 1978 
L 1159 0 
L 581 0 
L 581 3500 
L 1159 3500 
L 1159 2956 
Q 1356 3278 1631 3431 
Q 1906 3584 2284 3584 
Q 2666 3584 2933 3390 
Q 3200 3197 3328 2828 
z
" transform="scale(0.015625)"/>
       <path id="DejaVuSans-48" d="M 3597 1894 
L 3597 1613 
L 953 1613 
Q 991 1019 1311 708 
Q 1631 397 2203 397 
Q 2534 397 2845 478 
Q 3156 559 3463 722 
L 3463 178 
Q 3153 47 2828 -22 
Q 2503 -91 2169 -91 
Q 1331 -91 842 396 
Q 353 884 353 1716 
Q 353 2575 817 3079 
Q 1281 3584 2069 3584 
Q 2775 3584 3186 3129 
Q 3597 2675 3597 1894 
z
M 3022 2063 
Q 3016 2534 2758 2815 
Q 2500 3097 2075 3097 
Q 1594 3097 1305 2825 
Q 1016 2553 972 2059 
L 3022 2063 
z
" transform="scale(0.015625)"/>
       <path id="DejaVuSans-3" transform="scale(0.015625)"/>
       <path id="DejaVuSans-b" d="M 1984 4856 
Q 1566 4138 1362 3434 
Q 1159 2731 1159 2009 
Q 1159 1288 1364 580 
Q 1569 -128 1984 -844 
L 1484 -844 
Q 1016 -109 783 600 
Q 550 1309 550 2009 
Q 550 2706 781 3412 
Q 1013 4119 1484 4856 
L 1984 4856 
z
" transform="scale(0.015625)"/>
       <path id="DejaVuSans-51" d="M 3513 2113 
L 3513 0 
L 2938 0 
L 2938 2094 
Q 2938 2591 2744 2837 
Q 2550 3084 2163 3084 
Q 1697 3084 1428 2787 
Q 1159 2491 1159 1978 
L 1159 0 
L 581 0 
L 581 3500 
L 1159 3500 
L 1159 2956 
Q 1366 3272 1645 3428 
Q 1925 3584 2291 3584 
Q 2894 3584 3203 3211 
Q 3513 2838 3513 2113 
z
" transform="scale(0.015625)"/>
       <path id="DejaVuSans-58" d="M 544 1381 
L 544 3500 
L 1119 3500 
L 1119 1403 
Q 1119 906 1312 657 
Q 1506 409 1894 409 
Q 2359 409 2629 706 
Q 2900 1003 2900 1516 
L 2900 3500 
L 3475 3500 
L 3475 0 
L 2900 0 
L 2900 538 
Q 2691 219 2414 64 
Q 2138 -91 1772 -91 
Q 1169 -91 856 284 
Q 544 659 544 1381 
z
M 1991 3584 
L 1991 3584 
z
" transform="scale(0.015625)"/>
       <path id="DejaVuSans-56" d="M 2834 3397 
L 2834 2853 
Q 2591 2978 2328 3040 
Q 2066 3103 1784 3103 
Q 1356 3103 1142 2972 
Q 928 2841 928 2578 
Q 928 2378 1081 2264 
Q 1234 2150 1697 2047 
L 1894 2003 
Q 2506 1872 2764 1633 
Q 3022 1394 3022 966 
Q 3022 478 2636 193 
Q 2250 -91 1575 -91 
Q 1294 -91 989 -36 
Q 684 19 347 128 
L 347 722 
Q 666 556 975 473 
Q 1284 391 1588 391 
Q 1994 391 2212 530 
Q 2431 669 2431 922 
Q 2431 1156 2273 1281 
Q 2116 1406 1581 1522 
L 1381 1569 
Q 847 1681 609 1914 
Q 372 2147 372 2553 
Q 372 3047 722 3315 
Q 1072 3584 1716 3584 
Q 2034 3584 2315 3537 
Q 2597 3491 2834 3397 
z
" transform="scale(0.015625)"/>
       <path id="DejaVuSans-c" d="M 513 4856 
L 1013 4856 
Q 1481 4119 1714 3412 
Q 1947 2706 1947 2009 
Q 1947 1309 1714 600 
Q 1481 -109 1013 -844 
L 513 -844 
Q 928 -128 1133 580 
Q 1338 1288 1338 2009 
Q 1338 2731 1133 3434 
Q 928 4138 513 4856 
z
" transform="scale(0.015625)"/>
      </defs>
      <use xlink:href="#DejaVuSans-57"/>
      <use xlink:href="#DejaVuSans-4c" transform="translate(39.203125 0)"/>
      <use xlink:href="#DejaVuSans-50" transform="translate(66.984375 0)"/>
      <use xlink:href="#DejaVuSans-48" transform="translate(164.390625 0)"/>
      <use xlink:href="#DejaVuSans-3" transform="translate(225.921875 0)"/>
      <use xlink:href="#DejaVuSans-b" transform="translate(257.703125 0)"/>
      <use xlink:href="#DejaVuSans-50" transform="translate(296.71875 0)"/>
      <use xlink:href="#DejaVuSans-4c" transform="translate(394.125 0)"/>
      <use xlink:href="#DejaVuSans-51" transform="translate(421.90625 0)"/>
      <use xlink:href="#DejaVuSans-58" transform="translate(485.28125 0)"/>
      <use xlink:href="#DejaVuSans-57" transform="translate(548.65625 0)"/>
      <use xlink:href="#DejaVuSans-48" transform="translate(587.859375 0)"/>
      <use xlink:href="#DejaVuSans-56" transform="translate(649.390625 0)"/>
      <use xlink:href="#DejaVuSans-c" transform="translate(701.484375 0)"/>
     </g>
    </g>
   </g>
   <g id="matplotlib.axis_2">
    <g id="ytick_1">
     <g id="line2d_15">
      <path d="M 99 312.485104 
L 712.8 312.485104 
" clip-path="url(#p11cc6b03d0)" style="fill: none; stroke: #2a3340; stroke-opacity: 0.5; stroke-width: 0.8; stroke-linecap: square"/>
     </g>
     <g id="line2d_16">
      <defs>
       <path id="m94fef33d78" d="M 0 0 
L -3.5 0 
" style="stroke: #8b97a7; stroke-width: 0.8"/>
      </defs>
      <g>
       <use xlink:href="#m94fef33d78" x="99" y="312.485104" style="fill: #8b97a7; stroke: #8b97a7; stroke-width: 0.8"/>
      </g>
     </g>
     <g id="text_9">
      <!-- −1500 -->
      <g style="fill: #8b97a7" transform="translate(54.787344 316.663814) scale(0.11 -0.11)">
       <defs>
        <path id="DejaVuSans-c9c" d="M 678 2272 
L 4684 2272 
L 4684 1741 
L 678 1741 
L 678 2272 
z
" transform="scale(0.015625)"/>
        <path id="DejaVuSans-18" d="M 691 4666 
L 3169 4666 
L 3169 4134 
L 1269 4134 
L 1269 2991 
Q 1406 3038 1543 3061 
Q 1681 3084 1819 3084 
Q 2600 3084 3056 2656 
Q 3513 2228 3513 1497 
Q 3513 744 3044 326 
Q 2575 -91 1722 -91 
Q 1428 -91 1123 -41 
Q 819 9 494 109 
L 494 744 
Q 775 591 1075 516 
Q 1375 441 1709 441 
Q 2250 441 2565 725 
Q 2881 1009 2881 1497 
Q 2881 1984 2565 2268 
Q 2250 2553 1709 2553 
Q 1456 2553 1204 2497 
Q 953 2441 691 2322 
L 691 4666 
z
" transform="scale(0.015625)"/>
       </defs>
       <use xlink:href="#DejaVuSans-c9c"/>
       <use xlink:href="#DejaVuSans-14" transform="translate(83.796875 0)"/>
       <use xlink:href="#DejaVuSans-18" transform="translate(147.421875 0)"/>
       <use xlink:href="#DejaVuSans-13" transform="translate(211.046875 0)"/>
       <use xlink:href="#DejaVuSans-13" transform="translate(274.671875 0)"/>
      </g>
     </g>
    </g>
    <g id="ytick_2">
     <g id="line2d_17">
      <path d="M 99 273.838417 
L 712.8 273.838417 
" clip-path="url(#p11cc6b03d0)" style="fill: none; stroke: #2a3340; stroke-opacity: 0.5; stroke-width: 0.8; stroke-linecap: square"/>
     </g>
     <g id="line2d_18">
      <g>
       <use xlink:href="#m94fef33d78" x="99" y="273.838417" style="fill: #8b97a7; stroke: #8b97a7; stroke-width: 0.8"/>
      </g>
     </g>
     <g id="text_10">
      <!-- −1000 -->
      <g style="fill: #8b97a7" transform="translate(54.787344 278.017128) scale(0.11 -0.11)">
       <use xlink:href="#DejaVuSans-c9c"/>
       <use xlink:href="#DejaVuSans-14" transform="translate(83.796875 0)"/>
       <use xlink:href="#DejaVuSans-13" transform="translate(147.421875 0)"/>
       <use xlink:href="#DejaVuSans-13" transform="translate(211.046875 0)"/>
       <use xlink:href="#DejaVuSans-13" transform="translate(274.671875 0)"/>
      </g>
     </g>
    </g>
    <g id="ytick_3">
     <g id="line2d_19">
      <path d="M 99 235.191731 
L 712.8 235.191731 
" clip-path="url(#p11cc6b03d0)" style="fill: none; stroke: #2a3340; stroke-opacity: 0.5; stroke-width: 0.8; stroke-linecap: square"/>
     </g>
     <g id="line2d_20">
      <g>
       <use xlink:href="#m94fef33d78" x="99" y="235.191731" style="fill: #8b97a7; stroke: #8b97a7; stroke-width: 0.8"/>
      </g>
     </g>
     <g id="text_11">
      <!-- −500 -->
      <g style="fill: #8b97a7" transform="translate(61.786094 239.370442) scale(0.11 -0.11)">
       <use xlink:href="#DejaVuSans-c9c"/>
       <use xlink:href="#DejaVuSans-18" transform="translate(83.796875 0)"/>
       <use xlink:href="#DejaVuSans-13" transform="translate(147.421875 0)"/>
       <use xlink:href="#DejaVuSans-13" transform="translate(211.046875 0)"/>
      </g>
     </g>
    </g>
    <g id="ytick_4">
     <g id="line2d_21">
      <path d="M 99 196.545045 
L 712.8 196.545045 
" clip-path="url(#p11cc6b03d0)" style="fill: none; stroke: #2a3340; stroke-opacity: 0.5; stroke-width: 0.8; stroke-linecap: square"/>
     </g>
     <g id="line2d_22">
      <g>
       <use xlink:href="#m94fef33d78" x="99" y="196.545045" style="fill: #8b97a7; stroke: #8b97a7; stroke-width: 0.8"/>
      </g>
     </g>
     <g id="text_12">
      <!-- 0 -->
      <g style="fill: #8b97a7" transform="translate(85.00125 200.723756) scale(0.11 -0.11)">
       <use xlink:href="#DejaVuSans-13"/>
      </g>
     </g>
    </g>
    <g id="ytick_5">
     <g id="line2d_23">
      <path d="M 99 157.898359 
L 712.8 157.898359 
" clip-path="url(#p11cc6b03d0)" style="fill: none; stroke: #2a3340; stroke-opacity: 0.5; stroke-width: 0.8; stroke-linecap: square"/>
     </g>
     <g id="line2d_24">
      <g>
       <use xlink:href="#m94fef33d78" x="99" y="157.898359" style="fill: #8b97a7; stroke: #8b97a7; stroke-width: 0.8"/>
      </g>
     </g>
     <g id="text_13">
      <!-- 500 -->
      <g style="fill: #8b97a7" transform="translate(71.00375 162.07707) scale(0.11 -0.11)">
       <use xlink:href="#DejaVuSans-18"/>
       <use xlink:href="#DejaVuSans-13" transform="translate(63.625 0)"/>
       <use xlink:href="#DejaVuSans-13" transform="translate(127.25 0)"/>
      </g>
     </g>
    </g>
    <g id="ytick_6">
     <g id="line2d_25">
      <path d="M 99 119.251673 
L 712.8 119.251673 
" clip-path="url(#p11cc6b03d0)" style="fill: none; stroke: #2a3340; stroke-opacity: 0.5; stroke-width: 0.8; stroke-linecap: square"/>
     </g>
     <g id="line2d_26">
      <g>
       <use xlink:href="#m94fef33d78" x="99" y="119.251673" style="fill: #8b97a7; stroke: #8b97a7; stroke-width: 0.8"/>
      </g>
     </g>
     <g id="text_14">
      <!-- 1000 -->
      <g style="fill: #8b97a7" transform="translate(64.005 123.430384) scale(0.11 -0.11)">
       <use xlink:href="#DejaVuSans-14"/>
       <use xlink:href="#DejaVuSans-13" transform="translate(63.625 0)"/>
       <use xlink:href="#DejaVuSans-13" transform="translate(127.25 0)"/>
       <use xlink:href="#DejaVuSans-13" transform="translate(190.875 0)"/>
      </g>
     </g>
    </g>
    <g id="ytick_7">
     <g id="line2d_27">
      <path d="M 99 80.604987 
L 712.8 80.604987 
" clip-path="url(#p11cc6b03d0)" style="fill: none; stroke: #2a3340; stroke-opacity: 0.5; stroke-width: 0.8; stroke-linecap: square"/>
     </g>
     <g id="line2d_28">
      <g>
       <use xlink:href="#m94fef33d78" x="99" y="80.604987" style="fill: #8b97a7; stroke: #8b97a7; stroke-width: 0.8"/>
      </g>
     </g>
     <g id="text_15">
      <!-- 1500 -->
      <g style="fill: #8b97a7" transform="translate(64.005 84.783698) scale(0.11 -0.11)">
       <use xlink:href="#DejaVuSans-14"/>
       <use xlink:href="#DejaVuSans-18" transform="translate(63.625 0)"/>
       <use xlink:href="#DejaVuSans-13" transform="translate(127.25 0)"/>
       <use xlink:href="#DejaVuSans-13" transform="translate(190.875 0)"/>
      </g>
     </g>
    </g>
    <g id="ytick_8">
     <g id="line2d_29">
      <path d="M 99 41.958301 
L 712.8 41.958301 
" clip-path="url(#p11cc6b03d0)" style="fill: none; stroke: #2a3340; stroke-opacity: 0.5; stroke-width: 0.8; stroke-linecap: square"/>
     </g>
     <g id="line2d_30">
      <g>
       <use xlink:href="#m94fef33d78" x="99" y="41.958301" style="fill: #8b97a7; stroke: #8b97a7; stroke-width: 0.8"/>
      </g>
     </g>
     <g id="text_16">
      <!-- 2000 -->
      <g style="fill: #8b97a7" transform="translate(64.005 46.137012) scale(0.11 -0.11)">
       <use xlink:href="#DejaVuSans-15"/>
       <use xlink:href="#DejaVuSans-13" transform="translate(63.625 0)"/>
       <use xlink:href="#DejaVuSans-13" transform="translate(127.25 0)"/>
       <use xlink:href="#DejaVuSans-13" transform="translate(190.875 0)"/>
      </g>
     </g>
    </g>
    <g id="text_17">
     <!-- inter-speaker drift (µs, recentred) -->
     <g style="fill: #8b97a7" transform="translate(48.144766 255.508203) rotate(-90) scale(0.11 -0.11)">
      <defs>
       <path id="DejaVuSans-55" d="M 2631 2963 
Q 2534 3019 2420 3045 
Q 2306 3072 2169 3072 
Q 1681 3072 1420 2755 
Q 1159 2438 1159 1844 
L 1159 0 
L 581 0 
L 581 3500 
L 1159 3500 
L 1159 2956 
Q 1341 3275 1631 3429 
Q 1922 3584 2338 3584 
Q 2397 3584 2469 3576 
Q 2541 3569 2628 3553 
L 2631 2963 
z
" transform="scale(0.015625)"/>
       <path id="DejaVuSans-10" d="M 313 2009 
L 1997 2009 
L 1997 1497 
L 313 1497 
L 313 2009 
z
" transform="scale(0.015625)"/>
       <path id="DejaVuSans-53" d="M 1159 525 
L 1159 -1331 
L 581 -1331 
L 581 3500 
L 1159 3500 
L 1159 2969 
Q 1341 3281 1617 3432 
Q 1894 3584 2278 3584 
Q 2916 3584 3314 3078 
Q 3713 2572 3713 1747 
Q 3713 922 3314 415 
Q 2916 -91 2278 -91 
Q 1894 -91 1617 61 
Q 1341 213 1159 525 
z
M 3116 1747 
Q 3116 2381 2855 2742 
Q 2594 3103 2138 3103 
Q 1681 3103 1420 2742 
Q 1159 2381 1159 1747 
Q 1159 1113 1420 752 
Q 1681 391 2138 391 
Q 2594 391 2855 752 
Q 3116 1113 3116 1747 
z
" transform="scale(0.015625)"/>
       <path id="DejaVuSans-44" d="M 2194 1759 
Q 1497 1759 1228 1600 
Q 959 1441 959 1056 
Q 959 750 1161 570 
Q 1363 391 1709 391 
Q 2188 391 2477 730 
Q 2766 1069 2766 1631 
L 2766 1759 
L 2194 1759 
z
M 3341 1997 
L 3341 0 
L 2766 0 
L 2766 531 
Q 2569 213 2275 61 
Q 1981 -91 1556 -91 
Q 1019 -91 701 211 
Q 384 513 384 1019 
Q 384 1609 779 1909 
Q 1175 2209 1959 2209 
L 2766 2209 
L 2766 2266 
Q 2766 2663 2505 2880 
Q 2244 3097 1772 3097 
Q 1472 3097 1187 3025 
Q 903 2953 641 2809 
L 641 3341 
Q 956 3463 1253 3523 
Q 1550 3584 1831 3584 
Q 2591 3584 2966 3190 
Q 3341 2797 3341 1997 
z
" transform="scale(0.015625)"/>
       <path id="DejaVuSans-4e" d="M 581 4863 
L 1159 4863 
L 1159 1991 
L 2875 3500 
L 3609 3500 
L 1753 1863 
L 3688 0 
L 2938 0 
L 1159 1709 
L 1159 0 
L 581 0 
L 581 4863 
z
" transform="scale(0.015625)"/>
       <path id="DejaVuSans-47" d="M 2906 2969 
L 2906 4863 
L 3481 4863 
L 3481 0 
L 2906 0 
L 2906 525 
Q 2725 213 2448 61 
Q 2172 -91 1784 -91 
Q 1150 -91 751 415 
Q 353 922 353 1747 
Q 353 2572 751 3078 
Q 1150 3584 1784 3584 
Q 2172 3584 2448 3432 
Q 2725 3281 2906 2969 
z
M 947 1747 
Q 947 1113 1208 752 
Q 1469 391 1925 391 
Q 2381 391 2643 752 
Q 2906 1113 2906 1747 
Q 2906 2381 2643 2742 
Q 2381 3103 1925 3103 
Q 1469 3103 1208 2742 
Q 947 2381 947 1747 
z
" transform="scale(0.015625)"/>
       <path id="DejaVuSans-49" d="M 2375 4863 
L 2375 4384 
L 1825 4384 
Q 1516 4384 1395 4259 
Q 1275 4134 1275 3809 
L 1275 3500 
L 2222 3500 
L 2222 3053 
L 1275 3053 
L 1275 0 
L 697 0 
L 697 3053 
L 147 3053 
L 147 3500 
L 697 3500 
L 697 3744 
Q 697 4328 969 4595 
Q 1241 4863 1831 4863 
L 2375 4863 
z
" transform="scale(0.015625)"/>
       <path id="DejaVuSans-77" d="M 544 -1331 
L 544 3500 
L 1119 3500 
L 1119 1325 
Q 1119 872 1334 640 
Q 1550 409 1972 409 
Q 2434 409 2667 671 
Q 2900 934 2900 1459 
L 2900 3500 
L 3475 3500 
L 3475 806 
Q 3475 619 3529 530 
Q 3584 441 3700 441 
Q 3728 441 3778 458 
Q 3828 475 3916 513 
L 3916 50 
Q 3788 -22 3673 -56 
Q 3559 -91 3450 -91 
Q 3234 -91 3106 31 
Q 2978 153 2931 403 
Q 2775 156 2548 32 
Q 2322 -91 2016 -91 
Q 1697 -91 1473 31 
Q 1250 153 1119 397 
L 1119 -1331 
L 544 -1331 
z
" transform="scale(0.015625)"/>
       <path id="DejaVuSans-f" d="M 750 794 
L 1409 794 
L 1409 256 
L 897 -744 
L 494 -744 
L 750 256 
L 750 794 
z
" transform="scale(0.015625)"/>
       <path id="DejaVuSans-46" d="M 3122 3366 
L 3122 2828 
Q 2878 2963 2633 3030 
Q 2388 3097 2138 3097 
Q 1578 3097 1268 2742 
Q 959 2388 959 1747 
Q 959 1106 1268 751 
Q 1578 397 2138 397 
Q 2388 397 2633 464 
Q 2878 531 3122 666 
L 3122 134 
Q 2881 22 2623 -34 
Q 2366 -91 2075 -91 
Q 1284 -91 818 406 
Q 353 903 353 1747 
Q 353 2603 823 3093 
Q 1294 3584 2113 3584 
Q 2378 3584 2631 3529 
Q 2884 3475 3122 3366 
z
" transform="scale(0.015625)"/>
      </defs>
      <use xlink:href="#DejaVuSans-4c"/>
      <use xlink:href="#DejaVuSans-51" transform="translate(27.78125 0)"/>
      <use xlink:href="#DejaVuSans-57" transform="translate(91.15625 0)"/>
      <use xlink:href="#DejaVuSans-48" transform="translate(130.359375 0)"/>
      <use xlink:href="#DejaVuSans-55" transform="translate(191.890625 0)"/>
      <use xlink:href="#DejaVuSans-10" transform="translate(226.609375 0)"/>
      <use xlink:href="#DejaVuSans-56" transform="translate(262.6875 0)"/>
      <use xlink:href="#DejaVuSans-53" transform="translate(314.78125 0)"/>
      <use xlink:href="#DejaVuSans-48" transform="translate(378.265625 0)"/>
      <use xlink:href="#DejaVuSans-44" transform="translate(439.796875 0)"/>
      <use xlink:href="#DejaVuSans-4e" transform="translate(501.078125 0)"/>
      <use xlink:href="#DejaVuSans-48" transform="translate(555.421875 0)"/>
      <use xlink:href="#DejaVuSans-55" transform="translate(616.953125 0)"/>
      <use xlink:href="#DejaVuSans-3" transform="translate(658.0625 0)"/>
      <use xlink:href="#DejaVuSans-47" transform="translate(689.84375 0)"/>
      <use xlink:href="#DejaVuSans-55" transform="translate(753.328125 0)"/>
      <use xlink:href="#DejaVuSans-4c" transform="translate(794.4375 0)"/>
      <use xlink:href="#DejaVuSans-49" transform="translate(822.21875 0)"/>
      <use xlink:href="#DejaVuSans-57" transform="translate(855.671875 0)"/>
      <use xlink:href="#DejaVuSans-3" transform="translate(894.875 0)"/>
      <use xlink:href="#DejaVuSans-b" transform="translate(926.65625 0)"/>
      <use xlink:href="#DejaVuSans-77" transform="translate(965.671875 0)"/>
      <use xlink:href="#DejaVuSans-56" transform="translate(1029.296875 0)"/>
      <use xlink:href="#DejaVuSans-f" transform="translate(1081.390625 0)"/>
      <use xlink:href="#DejaVuSans-3" transform="translate(1113.171875 0)"/>
      <use xlink:href="#DejaVuSans-55" transform="translate(1144.953125 0)"/>
      <use xlink:href="#DejaVuSans-48" transform="translate(1183.859375 0)"/>
      <use xlink:href="#DejaVuSans-46" transform="translate(1245.390625 0)"/>
      <use xlink:href="#DejaVuSans-48" transform="translate(1300.375 0)"/>
      <use xlink:href="#DejaVuSans-51" transform="translate(1361.90625 0)"/>
      <use xlink:href="#DejaVuSans-57" transform="translate(1425.28125 0)"/>
      <use xlink:href="#DejaVuSans-55" transform="translate(1464.484375 0)"/>
      <use xlink:href="#DejaVuSans-48" transform="translate(1503.390625 0)"/>
      <use xlink:href="#DejaVuSans-47" transform="translate(1564.921875 0)"/>
      <use xlink:href="#DejaVuSans-c" transform="translate(1628.40625 0)"/>
     </g>
    </g>
   </g>
   <g id="line2d_31">
    <path d="M 99 196.545045 
L 712.8 196.545045 
" clip-path="url(#p11cc6b03d0)" style="fill: none; stroke: #8b97a7; stroke-opacity: 0.6; stroke-width: 0.8; stroke-linecap: square"/>
   </g>
   <g id="line2d_32">
    <path d="M 162.416596 24.709091 
L 167.370604 30.672982 
L 168.609104 32.362181 
L 171.08611 35.188001 
L 172.324614 36.418223 
L 178.517129 43.518495 
L 179.755632 44.921366 
L 180.994137 46.107466 
L 182.23264 47.458059 
L 183.471127 50.492686 
L 184.709646 50.319237 
L 188.425155 54.468992 
L 189.663661 55.603897 
L 200.810197 67.297787 
L 204.52571 71.052468 
L 205.764214 72.395097 
L 208.241226 74.604668 
L 210.718234 77.173426 
L 213.195246 79.441237 
L 215.672255 81.900129 
L 218.149265 84.255022 
L 220.626273 86.880885 
L 221.864781 87.835881 
L 223.103286 89.054254 
L 224.341787 90.55935 
L 225.580292 91.805921 
L 226.818799 92.849574 
L 230.53431 96.764351 
L 231.772819 97.637354 
L 234.249831 99.835961 
L 247.873392 112.408011 
L 252.827417 116.733787 
L 255.304427 119.105314 
L 256.542936 119.974896 
L 257.781442 121.047303 
L 259.019947 122.267006 
L 260.258455 123.12048 
L 261.496961 124.256571 
L 262.735465 125.564184 
L 265.21248 127.489946 
L 266.450985 128.625471 
L 267.689494 129.463243 
L 271.405015 132.469409 
L 272.64352 133.622173 
L 276.359041 136.619346 
L 277.597552 137.281262 
L 278.836057 138.445296 
L 280.074567 139.142155 
L 285.028593 143.32981 
L 291.221131 148.050936 
L 292.459641 148.732692 
L 293.698149 149.701119 
L 294.936658 150.471779 
L 296.175165 151.454813 
L 297.413677 151.96478 
L 298.652184 152.99287 
L 299.890695 153.592712 
L 301.129201 154.644491 
L 302.367712 155.300662 
L 307.321744 158.92077 
L 311.037269 161.532089 
L 312.275775 162.641322 
L 313.514286 163.184549 
L 314.752791 164.395832 
L 315.991302 164.96979 
L 317.22981 165.947561 
L 318.468315 167.10635 
L 319.706825 167.761091 
L 320.945331 168.860438 
L 327.137878 172.666071 
L 329.614896 174.301453 
L 330.853405 175.152515 
L 332.091915 175.823397 
L 333.330424 176.660655 
L 334.568934 177.336897 
L 338.28446 179.844614 
L 339.522973 180.250535 
L 340.761529 176.325294 
L 341.999989 181.990089 
L 343.238493 183.324865 
L 344.477017 182.605667 
L 345.715515 184.562098 
L 346.954023 185.432278 
L 350.669555 187.353924 
L 353.146573 188.906489 
L 358.100613 191.745524 
L 360.577638 192.677995 
L 366.770193 195.675323 
L 368.008701 196.545045 
L 370.485723 197.821129 
L 372.962746 198.890058 
L 374.201255 199.684541 
L 375.439768 200.061266 
L 377.91679 201.306582 
L 379.155303 201.726342 
L 380.393817 201.960323 
L 381.632326 202.800788 
L 384.10935 203.784461 
L 385.34786 204.482016 
L 391.540418 207.18796 
L 392.778929 207.76311 
L 394.017443 208.096122 
L 397.732979 209.642245 
L 398.971491 210.092625 
L 400.210003 210.662015 
L 401.448517 210.969129 
L 402.687027 211.599565 
L 403.925543 211.765177 
L 405.164053 212.384581 
L 407.64108 213.180541 
L 411.356618 214.476359 
L 413.833644 215.250615 
L 415.072155 215.817398 
L 417.549182 216.579783 
L 418.787694 217.03441 
L 420.026222 216.00979 
L 421.264722 217.623917 
L 422.503236 217.947858 
L 423.741751 218.143986 
L 426.218777 218.990206 
L 429.934318 219.951421 
L 431.172831 220.398996 
L 433.64986 220.932262 
L 434.888376 220.949753 
L 436.126891 221.157734 
L 437.365404 221.570095 
L 438.603916 222.132002 
L 439.842431 222.331334 
L 441.080943 222.801783 
L 442.319458 223.050275 
L 443.557969 223.59037 
L 448.512032 224.143558 
L 449.750546 224.420619 
L 450.989061 224.575661 
L 452.227575 224.910488 
L 453.466087 225.433784 
L 455.943117 225.844995 
L 457.181633 225.909558 
L 458.420148 226.095368 
L 459.658662 226.42849 
L 460.897177 226.598648 
L 462.135691 226.944753 
L 465.851237 227.482871 
L 467.089751 227.729057 
L 470.805301 227.895699 
L 472.043816 228.110373 
L 474.520849 228.129731 
L 475.759367 228.097858 
L 478.236397 228.522254 
L 479.474915 228.350095 
L 480.713432 228.347528 
L 481.951951 228.231294 
L 483.190464 228.559659 
L 484.428982 228.45537 
L 486.906015 228.603764 
L 488.144532 228.562526 
L 494.337114 228.932313 
L 499.291182 228.893101 
L 501.768216 228.953246 
L 504.24525 228.956023 
L 507.960799 229.140194 
L 511.67635 229.167706 
L 514.153384 229.110651 
L 520.345969 229.120728 
L 522.823002 229.232869 
L 524.061523 228.874958 
L 525.300039 228.97605 
L 526.538541 230.517879 
L 527.777075 228.750233 
L 529.015594 228.626871 
L 530.254111 228.64123 
L 531.492612 230.212542 
L 532.731132 229.876151 
L 533.969668 227.993072 
L 536.446708 227.36124 
L 537.685212 228.661776 
L 538.923731 228.532029 
L 540.16227 226.303828 
L 542.639307 226.070688 
L 543.877809 227.486996 
L 545.116328 227.279848 
L 546.354863 225.513657 
L 548.831902 225.021577 
L 550.070408 226.168975 
L 551.308927 225.945789 
L 552.547464 223.981276 
L 553.785983 223.745297 
L 555.024504 223.340112 
L 556.263008 224.684114 
L 557.501527 224.436228 
L 558.740063 222.540464 
L 561.217101 222.138006 
L 562.455606 223.379181 
L 563.694125 223.12726 
L 564.932662 221.201261 
L 567.409701 220.6895 
L 568.648205 221.984597 
L 569.886726 221.606006 
L 571.125264 219.530321 
L 572.363785 219.143382 
L 573.602304 218.909343 
L 574.840808 220.161863 
L 576.07933 219.72146 
L 577.317866 217.795536 
L 579.794907 217.165621 
L 581.033413 218.227084 
L 582.271935 217.769893 
L 583.510472 215.704287 
L 584.748997 214.968885 
L 585.987516 214.735368 
L 587.22603 215.067916 
L 588.464571 212.690754 
L 589.70309 212.472249 
L 590.94161 212.109991 
L 592.180132 211.631051 
L 593.418638 212.733963 
L 594.657158 212.462188 
L 595.895695 210.476258 
L 597.13422 209.6468 
L 598.37274 209.383144 
L 599.611249 210.15694 
L 600.849771 209.654937 
L 602.088307 207.822375 
L 604.565354 206.525327 
L 605.803874 206.175853 
L 607.042382 207.138089 
L 608.28092 204.960404 
L 610.757962 204.210499 
L 611.996486 203.538605 
L 613.23499 204.816478 
L 614.473527 202.824648 
L 616.950576 201.332336 
L 618.189095 201.124171 
L 619.427604 201.98049 
L 620.666142 199.833313 
L 623.14319 198.48595 
L 624.381709 198.290343 
L 625.620217 199.128423 
L 626.858757 196.82856 
L 629.335796 196.336869 
L 630.574322 195.4676 
L 631.812829 196.513469 
L 633.051368 194.279314 
L 635.528412 193.284663 
L 636.766938 192.363672 
L 638.005443 193.568109 
L 639.243981 191.44957 
L 640.482506 190.651943 
L 642.959552 189.484921 
L 644.198059 190.469715 
L 645.436598 188.321607 
L 646.675123 187.476385 
L 647.913647 186.832198 
L 649.152172 186.008141 
L 650.390677 187.186629 
L 651.629215 185.131467 
L 652.867742 184.165334 
L 654.106288 181.201307 
L 655.344796 182.152317 
L 656.5833 183.421839 
L 657.821833 181.871799 
L 659.060361 180.748762 
L 660.298882 180.394747 
L 661.53741 179.277067 
L 662.775916 180.38965 
L 664.014459 177.757993 
L 665.252982 177.179103 
L 666.491509 176.177836 
L 667.730032 175.552527 
L 668.968558 174.704399 
L 670.207081 174.053074 
L 672.684131 172.485791 
L 673.922654 171.880157 
L 675.161181 170.892695 
L 676.399702 170.543107 
L 677.638229 169.539298 
L 678.876751 168.99643 
L 681.3538 167.481013 
L 682.592328 166.442289 
L 682.592328 166.442289 
" clip-path="url(#p11cc6b03d0)" style="fill: none; stroke: #35e3b3; stroke-width: 1.6; stroke-linecap: square"/>
   </g>
   <g id="line2d_33">
    <path d="M 126.9 296.085382 
L 127.682245 296.108648 
L 128.465319 302.890909 
L 129.247858 181.806281 
L 130.030209 181.806281 
L 130.813938 181.978027 
L 131.596978 182.730169 
L 132.377539 178.064586 
L 133.159598 182.730169 
L 133.941386 184.704242 
L 134.725452 184.704242 
L 135.509564 188.543017 
L 137.07675 188.543017 
L 137.859235 187.377742 
L 138.643768 187.377742 
L 139.427401 199.178585 
L 140.990955 199.178585 
L 141.77172 198.311353 
L 144.117863 198.311353 
L 144.901813 193.683722 
L 147.24987 193.683722 
L 148.031683 197.833216 
L 149.597807 197.833216 
L 150.380983 198.921121 
L 151.163767 198.921121 
L 151.946579 199.769493 
L 155.867991 199.769493 
L 156.650065 198.921121 
L 157.430777 194.771626 
L 158.211731 194.771626 
L 158.994759 198.873894 
L 159.778068 198.873894 
L 160.561758 194.771626 
L 164.47302 194.771626 
L 165.256535 198.950183 
L 167.602329 198.950183 
L 168.385989 195.278902 
L 169.166847 195.413702 
L 169.950864 203.187251 
L 170.731265 203.187251 
L 171.513469 195.413702 
L 172.294781 195.413702 
L 173.076983 203.187251 
L 173.858705 203.634161 
L 174.641135 195.860612 
L 177.770448 195.860612 
L 178.55346 197.993136 
L 180.900336 197.993136 
L 181.683645 195.860612 
L 182.464653 195.860612 
L 183.249068 195.413702 
L 185.597966 195.413702 
L 186.37963 195.860612 
L 187.944029 195.860612 
L 188.727882 189.839613 
L 189.508825 197.546226 
L 190.292226 197.546226 
L 191.074078 187.91895 
L 192.638584 187.91895 
L 194.203627 190.286523 
L 195.770589 190.286523 
L 196.553334 193.219575 
L 202.026367 193.219575 
L 202.809202 202.951738 
L 203.593809 202.951738 
L 204.3774 203.68989 
L 206.728402 203.68989 
L 207.511281 204.365202 
L 209.858008 204.365202 
L 210.641464 204.776403 
L 211.424215 204.776403 
L 212.205951 202.931178 
L 215.33263 202.931178 
L 216.113485 200.424322 
L 216.897874 200.424322 
L 217.679905 195.740962 
L 219.244429 195.740962 
L 220.026912 197.570033 
L 220.80802 195.405045 
L 224.721104 195.405045 
L 225.503757 193.575975 
L 228.6335 193.575975 
L 229.41629 195.405045 
L 230.19779 195.286864 
L 238.017826 195.286864 
L 238.798992 193.184097 
L 239.580259 196.057169 
L 240.363734 193.184097 
L 241.147061 196.057169 
L 241.930142 196.057169 
L 242.710897 193.184097 
L 243.493434 196.057169 
L 248.188023 195.995721 
L 248.969517 192.58832 
L 253.668331 192.58832 
L 254.451839 190.324938 
L 255.232239 190.324938 
L 256.016904 186.256447 
L 259.148158 186.256447 
L 259.929988 192.245369 
L 260.711082 192.245369 
L 261.495402 173.214659 
L 262.27931 179.546532 
L 263.061114 179.546532 
L 263.845562 194.627551 
L 266.981424 194.627551 
L 267.765107 196.26362 
L 268.546351 196.26362 
L 269.329435 187.083022 
L 270.112991 187.083022 
L 270.893987 188.071605 
L 276.373086 188.071605 
L 277.156577 195.471208 
L 281.073872 195.471208 
L 281.856821 181.602845 
L 283.421221 181.602845 
L 284.203613 195.471208 
L 288.117039 195.471208 
L 288.899163 209.47128 
L 292.811003 209.47128 
L 293.594178 213.488989 
L 294.375304 213.488989 
L 295.158689 209.47128 
L 295.939915 213.189941 
L 296.722477 207.773453 
L 299.066807 207.773453 
L 299.847513 204.670511 
L 300.629591 183.494291 
L 304.54359 183.494291 
L 305.324895 208.851464 
L 306.106791 208.851464 
L 306.886704 183.993838 
L 308.452304 183.993838 
L 309.235231 184.771255 
L 314.715771 184.771255 
L 315.499339 183.993838 
L 316.280781 184.771255 
L 317.064442 183.993838 
L 317.848287 183.993838 
L 318.633047 181.119452 
L 321.766963 181.119452 
L 322.54926 178.37175 
L 325.678834 178.37175 
L 326.464009 179.149167 
L 327.246194 179.149167 
L 328.029462 178.37175 
L 328.810885 173.273479 
L 331.156262 173.273479 
L 331.938165 177.107849 
L 332.720961 173.273479 
L 335.069889 173.273479 
L 335.85371 177.107849 
L 339.76651 177.107849 
L 340.551234 185.775064 
L 341.334017 185.775064 
L 342.116485 191.372573 
L 344.461108 191.372573 
L 345.243111 193.373389 
L 347.588919 193.373389 
L 348.372318 195.214208 
L 349.154651 195.214208 
L 349.938836 195.767706 
L 351.50308 195.767706 
L 352.287878 195.214208 
L 353.071424 196.82647 
L 357.767621 196.82647 
L 358.549218 198.42281 
L 360.113943 198.42281 
L 360.89743 191.506986 
L 361.679324 189.677606 
L 364.02846 189.677606 
L 364.809508 191.238623 
L 365.592617 187.282671 
L 366.374362 191.238623 
L 367.157689 193.606042 
L 367.938999 194.709714 
L 371.849229 194.709714 
L 372.630384 193.606042 
L 373.413176 193.606042 
L 374.193727 192.722115 
L 382.017215 192.648995 
L 382.800207 190.535331 
L 383.581933 190.535331 
L 384.363688 192.571934 
L 388.27832 192.571934 
L 389.062309 194.685598 
L 393.759695 194.685598 
L 394.54265 192.571934 
L 396.890018 192.571934 
L 397.671333 202.037744 
L 398.456886 197.200029 
L 399.239182 197.200029 
L 400.022339 188.495018 
L 400.803783 188.495018 
L 401.584622 192.912025 
L 404.713132 192.912025 
L 405.497462 193.118862 
L 406.280877 193.118862 
L 407.062397 192.912025 
L 407.846948 197.44675 
L 412.546328 197.44675 
L 413.3296 207.196767 
L 415.677755 207.196767 
L 416.458772 202.152525 
L 418.807967 202.152525 
L 419.589648 207.196767 
L 420.374635 202.597116 
L 424.28532 202.597116 
L 425.0691 203.09875 
L 425.849697 193.76403 
L 427.4133 193.76403 
L 428.19563 203.09875 
L 428.978175 204.09854 
L 429.761693 203.09875 
L 430.543197 206.739809 
L 432.892854 206.739809 
L 433.673773 204.290769 
L 434.456067 204.290769 
L 435.238092 199.098895 
L 436.02196 199.098895 
L 436.80299 195.457837 
L 438.366379 195.457837 
L 439.149723 197.405088 
L 441.493872 197.405088 
L 442.275889 193.76403 
L 443.056739 197.405088 
L 444.622222 197.405088 
L 445.405387 197.710011 
L 446.186729 197.710011 
L 446.970574 199.400958 
L 453.227607 199.486058 
L 454.008686 195.791357 
L 459.485219 195.791357 
L 460.267077 203.221492 
L 465.747509 203.164372 
L 466.528325 198.331295 
L 468.096966 198.331295 
L 468.881032 203.642045 
L 469.662176 203.642045 
L 470.445189 205.549414 
L 471.228356 202.93311 
L 472.010606 184.241177 
L 476.70786 184.241177 
L 477.491971 188.629276 
L 478.276731 194.32402 
L 479.842106 194.32402 
L 480.62619 184.241177 
L 482.19232 184.241177 
L 482.977448 185.599144 
L 485.324918 185.599144 
L 486.109511 184.241177 
L 486.8921 184.126628 
L 487.674938 184.126628 
L 488.456802 189.991108 
L 489.239538 192.614291 
L 490.021295 189.991108 
L 490.805882 189.991108 
L 491.587602 191.463624 
L 492.369598 191.463624 
L 493.15119 189.991108 
L 493.934748 189.991108 
L 494.717212 194.086807 
L 495.502552 192.614291 
L 497.06754 192.614291 
L 497.849254 193.766967 
L 498.629801 193.766967 
L 499.412829 192.066281 
L 506.458479 192.066281 
L 507.239315 192.440922 
L 508.801936 192.440922 
L 509.583372 192.066281 
L 517.403571 192.066281 
L 518.185299 188.325745 
L 518.966973 193.05865 
L 520.53312 193.05865 
L 521.315246 188.325745 
L 522.097949 188.325745 
L 522.879832 188.700386 
L 525.230502 188.700386 
L 526.012611 193.433291 
L 526.795905 193.433291 
L 527.577105 202.673791 
L 528.359598 202.673791 
L 529.141091 211.03276 
L 529.924636 211.03276 
L 530.707323 205.064321 
L 531.490716 205.064321 
L 532.272849 220.657563 
L 533.056724 220.657563 
L 533.841878 204.961752 
L 541.665225 204.961752 
L 542.447455 202.305875 
L 545.576328 202.305875 
L 546.358978 204.06685 
L 548.70815 204.06685 
L 549.489028 205.347678 
L 551.840645 205.347678 
L 552.621796 199.541323 
L 554.972752 199.541323 
L 555.755251 205.347678 
L 556.540355 205.347678 
L 557.320373 211.259075 
L 558.104224 211.259075 
L 558.888193 216.245889 
L 562.020936 216.245889 
L 562.803354 210.439534 
L 567.499973 210.439534 
L 568.281815 205.45272 
L 573.759729 205.45272 
L 574.542014 219.719762 
L 575.325422 225.560977 
L 576.89158 225.560977 
L 577.674725 229.338304 
L 580.020711 229.338304 
L 580.801614 216.970901 
L 583.149629 216.970901 
L 583.930024 215.965623 
L 584.711426 205.491676 
L 585.491843 215.965623 
L 586.274857 209.876606 
L 587.055003 224.527024 
L 590.967384 224.527024 
L 591.747974 225.085236 
L 592.528375 226.605906 
L 593.310738 224.527024 
L 594.875151 224.527024 
L 595.659498 226.605906 
L 605.060912 226.605906 
L 605.84228 211.901383 
L 608.190829 211.943199 
L 608.972862 222.195546 
L 609.756344 211.872012 
L 610.537548 211.872012 
L 611.321965 213.926006 
L 612.10372 213.854819 
L 612.885776 210.731548 
L 613.670208 210.52216 
L 616.016983 210.52216 
L 616.79818 214.988094 
L 618.364765 214.988094 
L 619.149495 215.197482 
L 619.932488 215.197482 
L 620.715585 212.46292 
L 624.633716 212.542454 
L 625.417582 209.900953 
L 630.117096 209.900953 
L 630.898984 208.543759 
L 634.8123 208.464224 
L 635.594352 209.821419 
L 636.377156 214.680157 
L 637.940466 214.680157 
L 638.722478 213.073692 
L 644.202644 213.073692 
L 644.984745 202.883179 
L 645.768064 214.923477 
L 647.333895 214.923477 
L 648.114987 216.02282 
L 648.897793 217.803428 
L 649.678792 216.704084 
L 652.024351 216.704084 
L 652.806082 222.396509 
L 653.589142 223.495853 
L 654.369693 223.495853 
L 655.152106 219.338088 
L 656.717581 219.338088 
L 657.497958 221.174114 
L 658.281397 219.338088 
L 659.063866 218.238744 
L 659.846025 218.238744 
L 660.628755 217.551915 
L 661.413452 218.238744 
L 662.196542 218.238744 
L 662.980645 219.338088 
L 663.762332 201.546854 
L 664.544907 201.546854 
L 665.326229 202.233683 
L 667.675104 202.233683 
L 668.456099 201.546854 
L 670.020953 201.546854 
L 670.803111 223.623541 
L 671.585904 217.414488 
L 676.284026 217.414488 
L 677.066802 204.996612 
L 677.850168 204.996612 
L 678.633237 217.414488 
L 683.333407 217.414488 
L 684.115966 212.25214 
L 684.9 212.25214 
L 684.9 212.25214 
" clip-path="url(#p11cc6b03d0)" style="fill: none; stroke: #5bc8ff; stroke-opacity: 0.9; stroke-width: 1.4; stroke-linecap: square"/>
   </g>
   <g id="patch_3">
    <path d="M 99 316.8 
L 99 10.8 
" style="fill: none; stroke: #2a3340; stroke-width: 0.8; stroke-linejoin: miter; stroke-linecap: square"/>
   </g>
   <g id="patch_4">
    <path d="M 712.8 316.8 
L 712.8 10.8 
" style="fill: none; stroke: #2a3340; stroke-width: 0.8; stroke-linejoin: miter; stroke-linecap: square"/>
   </g>
   <g id="patch_5">
    <path d="M 99 316.8 
L 712.8 316.8 
" style="fill: none; stroke: #2a3340; stroke-width: 0.8; stroke-linejoin: miter; stroke-linecap: square"/>
   </g>
   <g id="patch_6">
    <path d="M 99 10.8 
L 712.8 10.8 
" style="fill: none; stroke: #2a3340; stroke-width: 0.8; stroke-linejoin: miter; stroke-linecap: square"/>
   </g>
   <g id="legend_1">
    <g id="line2d_34">
     <path d="M 455.259063 25.208281 
L 466.259063 25.208281 
L 477.259063 25.208281 
" style="fill: none; stroke: #35e3b3; stroke-width: 1.6; stroke-linecap: square"/>
    </g>
    <g id="text_18">
     <!-- microphone (acoustic pi02−pi01) -->
     <g style="fill: #e6edf3" transform="translate(486.059063 29.058281) scale(0.11 -0.11)">
      <defs>
       <path id="DejaVuSans-52" d="M 1959 3097 
Q 1497 3097 1228 2736 
Q 959 2375 959 1747 
Q 959 1119 1226 758 
Q 1494 397 1959 397 
Q 2419 397 2687 759 
Q 2956 1122 2956 1747 
Q 2956 2369 2687 2733 
Q 2419 3097 1959 3097 
z
M 1959 3584 
Q 2709 3584 3137 3096 
Q 3566 2609 3566 1747 
Q 3566 888 3137 398 
Q 2709 -91 1959 -91 
Q 1206 -91 779 398 
Q 353 888 353 1747 
Q 353 2609 779 3096 
Q 1206 3584 1959 3584 
z
" transform="scale(0.015625)"/>
       <path id="DejaVuSans-4b" d="M 3513 2113 
L 3513 0 
L 2938 0 
L 2938 2094 
Q 2938 2591 2744 2837 
Q 2550 3084 2163 3084 
Q 1697 3084 1428 2787 
Q 1159 2491 1159 1978 
L 1159 0 
L 581 0 
L 581 4863 
L 1159 4863 
L 1159 2956 
Q 1366 3272 1645 3428 
Q 1925 3584 2291 3584 
Q 2894 3584 3203 3211 
Q 3513 2838 3513 2113 
z
" transform="scale(0.015625)"/>
      </defs>
      <use xlink:href="#DejaVuSans-50"/>
      <use xlink:href="#DejaVuSans-4c" transform="translate(97.40625 0)"/>
      <use xlink:href="#DejaVuSans-46" transform="translate(125.1875 0)"/>
      <use xlink:href="#DejaVuSans-55" transform="translate(180.171875 0)"/>
      <use xlink:href="#DejaVuSans-52" transform="translate(219.078125 0)"/>
      <use xlink:href="#DejaVuSans-53" transform="translate(280.265625 0)"/>
      <use xlink:href="#DejaVuSans-4b" transform="translate(343.75 0)"/>
      <use xlink:href="#DejaVuSans-52" transform="translate(407.125 0)"/>
      <use xlink:href="#DejaVuSans-51" transform="translate(468.3125 0)"/>
      <use xlink:href="#DejaVuSans-48" transform="translate(531.6875 0)"/>
      <use xlink:href="#DejaVuSans-3" transform="translate(593.21875 0)"/>
      <use xlink:href="#DejaVuSans-b" transform="translate(625 0)"/>
      <use xlink:href="#DejaVuSans-44" transform="translate(664.015625 0)"/>
      <use xlink:href="#DejaVuSans-46" transform="translate(725.296875 0)"/>
      <use xlink:href="#DejaVuSans-52" transform="translate(780.28125 0)"/>
      <use xlink:href="#DejaVuSans-58" transform="translate(841.46875 0)"/>
      <use xlink:href="#DejaVuSans-56" transform="translate(904.84375 0)"/>
      <use xlink:href="#DejaVuSans-57" transform="translate(956.9375 0)"/>
      <use xlink:href="#DejaVuSans-4c" transform="translate(996.140625 0)"/>
      <use xlink:href="#DejaVuSans-46" transform="translate(1023.921875 0)"/>
      <use xlink:href="#DejaVuSans-3" transform="translate(1078.90625 0)"/>
      <use xlink:href="#DejaVuSans-53" transform="translate(1110.6875 0)"/>
      <use xlink:href="#DejaVuSans-4c" transform="translate(1174.171875 0)"/>
      <use xlink:href="#DejaVuSans-13" transform="translate(1201.953125 0)"/>
      <use xlink:href="#DejaVuSans-15" transform="translate(1265.578125 0)"/>
      <use xlink:href="#DejaVuSans-c9c" transform="translate(1329.203125 0)"/>
      <use xlink:href="#DejaVuSans-53" transform="translate(1413 0)"/>
      <use xlink:href="#DejaVuSans-4c" transform="translate(1476.484375 0)"/>
      <use xlink:href="#DejaVuSans-13" transform="translate(1504.265625 0)"/>
      <use xlink:href="#DejaVuSans-14" transform="translate(1567.890625 0)"/>
      <use xlink:href="#DejaVuSans-c" transform="translate(1631.515625 0)"/>
     </g>
    </g>
    <g id="line2d_35">
     <path d="M 455.259063 41.709141 
L 466.259063 41.709141 
L 477.259063 41.709141 
" style="fill: none; stroke: #5bc8ff; stroke-opacity: 0.9; stroke-width: 1.4; stroke-linecap: square"/>
    </g>
    <g id="text_19">
     <!-- servo reported (clock offset pi02−pi01) -->
     <g style="fill: #e6edf3" transform="translate(486.059063 45.559141) scale(0.11 -0.11)">
      <defs>
       <path id="DejaVuSans-59" d="M 191 3500 
L 800 3500 
L 1894 563 
L 2988 3500 
L 3597 3500 
L 2284 0 
L 1503 0 
L 191 3500 
z
" transform="scale(0.015625)"/>
       <path id="DejaVuSans-4f" d="M 603 4863 
L 1178 4863 
L 1178 0 
L 603 0 
L 603 4863 
z
" transform="scale(0.015625)"/>
       <path id="DejaVuSans-13ae" d="M 4531 4863 
L 4531 4384 
L 3981 4384 
Q 3672 4384 3551 4259 
Q 3431 4134 3431 3809 
L 3431 3500 
L 4378 3500 
L 4378 3053 
L 3431 3053 
L 3431 0 
L 2853 0 
L 2853 3053 
L 1275 3053 
L 1275 0 
L 697 0 
L 697 3053 
L 147 3053 
L 147 3500 
L 697 3500 
L 697 3744 
Q 697 4328 969 4595 
Q 1241 4863 1831 4863 
L 2375 4863 
L 2375 4384 
L 1825 4384 
Q 1516 4384 1394 4259 
Q 1275 4134 1275 3809 
L 1275 3500 
L 2853 3500 
L 2853 3744 
Q 2853 4328 3125 4595 
Q 3397 4863 3988 4863 
L 4531 4863 
z
" transform="scale(0.015625)"/>
      </defs>
      <use xlink:href="#DejaVuSans-56"/>
      <use xlink:href="#DejaVuSans-48" transform="translate(52.09375 0)"/>
      <use xlink:href="#DejaVuSans-55" transform="translate(113.625 0)"/>
      <use xlink:href="#DejaVuSans-59" transform="translate(154.734375 0)"/>
      <use xlink:href="#DejaVuSans-52" transform="translate(213.921875 0)"/>
      <use xlink:href="#DejaVuSans-3" transform="translate(275.109375 0)"/>
      <use xlink:href="#DejaVuSans-55" transform="translate(306.890625 0)"/>
      <use xlink:href="#DejaVuSans-48" transform="translate(345.796875 0)"/>
      <use xlink:href="#DejaVuSans-53" transform="translate(407.328125 0)"/>
      <use xlink:href="#DejaVuSans-52" transform="translate(470.8125 0)"/>
      <use xlink:href="#DejaVuSans-55" transform="translate(532 0)"/>
      <use xlink:href="#DejaVuSans-57" transform="translate(573.109375 0)"/>
      <use xlink:href="#DejaVuSans-48" transform="translate(612.3125 0)"/>
      <use xlink:href="#DejaVuSans-47" transform="translate(673.84375 0)"/>
      <use xlink:href="#DejaVuSans-3" transform="translate(737.328125 0)"/>
      <use xlink:href="#DejaVuSans-b" transform="translate(769.109375 0)"/>
      <use xlink:href="#DejaVuSans-46" transform="translate(808.125 0)"/>
      <use xlink:href="#DejaVuSans-4f" transform="translate(863.109375 0)"/>
      <use xlink:href="#DejaVuSans-52" transform="translate(890.890625 0)"/>
      <use xlink:href="#DejaVuSans-46" transform="translate(952.078125 0)"/>
      <use xlink:href="#DejaVuSans-4e" transform="translate(1007.0625 0)"/>
      <use xlink:href="#DejaVuSans-3" transform="translate(1064.96875 0)"/>
      <use xlink:href="#DejaVuSans-52" transform="translate(1096.75 0)"/>
      <use xlink:href="#DejaVuSans-13ae" transform="translate(1157.9375 0)"/>
      <use xlink:href="#DejaVuSans-56" transform="translate(1226.828125 0)"/>
      <use xlink:href="#DejaVuSans-48" transform="translate(1278.921875 0)"/>
      <use xlink:href="#DejaVuSans-57" transform="translate(1340.453125 0)"/>
      <use xlink:href="#DejaVuSans-3" transform="translate(1379.65625 0)"/>
      <use xlink:href="#DejaVuSans-53" transform="translate(1411.4375 0)"/>
      <use xlink:href="#DejaVuSans-4c" transform="translate(1474.921875 0)"/>
      <use xlink:href="#DejaVuSans-13" transform="translate(1502.703125 0)"/>
      <use xlink:href="#DejaVuSans-15" transform="translate(1566.328125 0)"/>
      <use xlink:href="#DejaVuSans-c9c" transform="translate(1629.953125 0)"/>
      <use xlink:href="#DejaVuSans-53" transform="translate(1713.75 0)"/>
      <use xlink:href="#DejaVuSans-4c" transform="translate(1777.234375 0)"/>
      <use xlink:href="#DejaVuSans-13" transform="translate(1805.015625 0)"/>
      <use xlink:href="#DejaVuSans-14" transform="translate(1868.640625 0)"/>
      <use xlink:href="#DejaVuSans-c" transform="translate(1932.265625 0)"/>
     </g>
    </g>
   </g>
  </g>
 </g>
 <defs>
  <clipPath id="p11cc6b03d0">
   <rect x="99" y="10.8" width="613.8" height="306"/>
  </clipPath>
 </defs>
</svg>
