<?xml version="1.0" encoding="utf-8" standalone="no"?>
<!DOCTYPE svg PUBLIC "-//W3C//DTD SVG 1.1//EN"
  "http://www.w3.org/Graphics/SVG/1.1/DTD/svg11.dtd">
<svg xmlns:xlink="http://www.w3.org/1999/xlink" width="792pt" height="360pt" viewBox="0 0 792 360" xmlns="http://www.w3.org/2000/svg" version="1.1">
 <metadata>
  <rdf:RDF xmlns:dc="http://purl.org/dc/elements/1.1/" xmlns:cc="http://creativecommons.org/ns#" xmlns:rdf="http://www.w3.org/1999/02/22-rdf-syntax-ns#">
   <cc:Work>
    <dc:type rdf:resource="http://purl.org/dc/dcmitype/StillImage"/>
    <dc:date>2026-06-12T22:04:19.560680</dc:date>
    <dc:format>image/svg+xml</dc:format>
    <dc:creator>
     <cc:Agent>
      <dc:title>Matplotlib v3.11.0, https://matplotlib.org/</dc:title>
     </cc:Agent>
    </dc:creator>
   </cc:Work>
  </rdf:RDF>
 </metadata>
 <defs>
  <style type="text/css">*{stroke-linejoin: round; stroke-linecap: butt}</style>
 </defs>
 <g id="figure_1">
  <g id="patch_1">
   <path d="M 0 360 
L 792 360 
L 792 0 
L 0 0 
z
" style="fill: #11151a"/>
  </g>
  <g id="axes_1">
   <g id="patch_2">
    <path d="M 99 316.8 
L 712.8 316.8 
L 712.8 46.8 
L 99 46.8 
z
" style="fill: #11151a"/>
   </g>
   <g id="matplotlib.axis_1">
    <g id="xtick_1">
     <g id="line2d_1">
      <path d="M 126.894152 316.8 
L 126.894152 46.8 
" clip-path="url(#p7a8d455813)" style="fill: none; stroke: #2a3340; stroke-opacity: 0.5; stroke-width: 0.8; stroke-linecap: square"/>
     </g>
     <g id="line2d_2">
      <defs>
       <path id="m76d1371688" d="M 0 0 
L 0 3.5 
" style="stroke: #8b97a7; stroke-width: 0.8"/>
      </defs>
      <g>
       <use xlink:href="#m76d1371688" x="126.894152" y="316.8" style="fill: #8b97a7; stroke: #8b97a7; stroke-width: 0.8"/>
      </g>
     </g>
     <g id="text_1">
      <!-- 0 -->
      <g style="fill: #8b97a7" transform="translate(123.394777 332.157422) scale(0.11 -0.11)">
       <defs>
        <path id="DejaVuSans-13" d="M 2034 4250 
Q 1547 4250 1301 3770 
Q 1056 3291 1056 2328 
Q 1056 1369 1301 889 
Q 1547 409 2034 409 
Q 2525 409 2770 889 
Q 3016 1369 3016 2328 
Q 3016 3291 2770 3770 
Q 2525 4250 2034 4250 
z
M 2034 4750 
Q 2819 4750 3233 4129 
Q 3647 3509 3647 2328 
Q 3647 1150 3233 529 
Q 2819 -91 2034 -91 
Q 1250 -91 836 529 
Q 422 1150 422 2328 
Q 422 3509 836 4129 
Q 1250 4750 2034 4750 
z
" transform="scale(0.015625)"/>
       </defs>
       <use xlink:href="#DejaVuSans-13"/>
      </g>
     </g>
    </g>
    <g id="xtick_2">
     <g id="line2d_3">
      <path d="M 219.782929 316.8 
L 219.782929 46.8 
" clip-path="url(#p7a8d455813)" style="fill: none; stroke: #2a3340; stroke-opacity: 0.5; stroke-width: 0.8; stroke-linecap: square"/>
     </g>
     <g id="line2d_4">
      <g>
       <use xlink:href="#m76d1371688" x="219.782929" y="316.8" style="fill: #8b97a7; stroke: #8b97a7; stroke-width: 0.8"/>
      </g>
     </g>
     <g id="text_2">
      <!-- 2 -->
      <g style="fill: #8b97a7" transform="translate(216.283554 332.157422) scale(0.11 -0.11)">
       <defs>
        <path id="DejaVuSans-15" d="M 1228 531 
L 3431 531 
L 3431 0 
L 469 0 
L 469 531 
Q 828 903 1448 1529 
Q 2069 2156 2228 2338 
Q 2531 2678 2651 2914 
Q 2772 3150 2772 3378 
Q 2772 3750 2511 3984 
Q 2250 4219 1831 4219 
Q 1534 4219 1204 4116 
Q 875 4013 500 3803 
L 500 4441 
Q 881 4594 1212 4672 
Q 1544 4750 1819 4750 
Q 2544 4750 2975 4387 
Q 3406 4025 3406 3419 
Q 3406 3131 3298 2873 
Q 3191 2616 2906 2266 
Q 2828 2175 2409 1742 
Q 1991 1309 1228 531 
z
" transform="scale(0.015625)"/>
       </defs>
       <use xlink:href="#DejaVuSans-15"/>
      </g>
     </g>
    </g>
    <g id="xtick_3">
     <g id="line2d_5">
      <path d="M 312.671706 316.8 
L 312.671706 46.8 
" clip-path="url(#p7a8d455813)" style="fill: none; stroke: #2a3340; stroke-opacity: 0.5; stroke-width: 0.8; stroke-linecap: square"/>
     </g>
     <g id="line2d_6">
      <g>
       <use xlink:href="#m76d1371688" x="312.671706" y="316.8" style="fill: #8b97a7; stroke: #8b97a7; stroke-width: 0.8"/>
      </g>
     </g>
     <g id="text_3">
      <!-- 4 -->
      <g style="fill: #8b97a7" transform="translate(309.172331 332.157422) scale(0.11 -0.11)">
       <defs>
        <path id="DejaVuSans-17" d="M 2419 4116 
L 825 1625 
L 2419 1625 
L 2419 4116 
z
M 2253 4666 
L 3047 4666 
L 3047 1625 
L 3713 1625 
L 3713 1100 
L 3047 1100 
L 3047 0 
L 2419 0 
L 2419 1100 
L 313 1100 
L 313 1709 
L 2253 4666 
z
" transform="scale(0.015625)"/>
       </defs>
       <use xlink:href="#DejaVuSans-17"/>
      </g>
     </g>
    </g>
    <g id="xtick_4">
     <g id="line2d_7">
      <path d="M 405.560483 316.8 
L 405.560483 46.8 
" clip-path="url(#p7a8d455813)" style="fill: none; stroke: #2a3340; stroke-opacity: 0.5; stroke-width: 0.8; stroke-linecap: square"/>
     </g>
     <g id="line2d_8">
      <g>
       <use xlink:href="#m76d1371688" x="405.560483" y="316.8" style="fill: #8b97a7; stroke: #8b97a7; stroke-width: 0.8"/>
      </g>
     </g>
     <g id="text_4">
      <!-- 6 -->
      <g style="fill: #8b97a7" transform="translate(402.061108 332.157422) scale(0.11 -0.11)">
       <defs>
        <path id="DejaVuSans-19" d="M 2113 2584 
Q 1688 2584 1439 2293 
Q 1191 2003 1191 1497 
Q 1191 994 1439 701 
Q 1688 409 2113 409 
Q 2538 409 2786 701 
Q 3034 994 3034 1497 
Q 3034 2003 2786 2293 
Q 2538 2584 2113 2584 
z
M 3366 4563 
L 3366 3988 
Q 3128 4100 2886 4159 
Q 2644 4219 2406 4219 
Q 1781 4219 1451 3797 
Q 1122 3375 1075 2522 
Q 1259 2794 1537 2939 
Q 1816 3084 2150 3084 
Q 2853 3084 3261 2657 
Q 3669 2231 3669 1497 
Q 3669 778 3244 343 
Q 2819 -91 2113 -91 
Q 1303 -91 875 529 
Q 447 1150 447 2328 
Q 447 3434 972 4092 
Q 1497 4750 2381 4750 
Q 2619 4750 2861 4703 
Q 3103 4656 3366 4563 
z
" transform="scale(0.015625)"/>
       </defs>
       <use xlink:href="#DejaVuSans-19"/>
      </g>
     </g>
    </g>
    <g id="xtick_5">
     <g id="line2d_9">
      <path d="M 498.44926 316.8 
L 498.44926 46.8 
" clip-path="url(#p7a8d455813)" style="fill: none; stroke: #2a3340; stroke-opacity: 0.5; stroke-width: 0.8; stroke-linecap: square"/>
     </g>
     <g id="line2d_10">
      <g>
       <use xlink:href="#m76d1371688" x="498.44926" y="316.8" style="fill: #8b97a7; stroke: #8b97a7; stroke-width: 0.8"/>
      </g>
     </g>
     <g id="text_5">
      <!-- 8 -->
      <g style="fill: #8b97a7" transform="translate(494.949885 332.157422) scale(0.11 -0.11)">
       <defs>
        <path id="DejaVuSans-1b" d="M 2034 2216 
Q 1584 2216 1326 1975 
Q 1069 1734 1069 1313 
Q 1069 891 1326 650 
Q 1584 409 2034 409 
Q 2484 409 2743 651 
Q 3003 894 3003 1313 
Q 3003 1734 2745 1975 
Q 2488 2216 2034 2216 
z
M 1403 2484 
Q 997 2584 770 2862 
Q 544 3141 544 3541 
Q 544 4100 942 4425 
Q 1341 4750 2034 4750 
Q 2731 4750 3128 4425 
Q 3525 4100 3525 3541 
Q 3525 3141 3298 2862 
Q 3072 2584 2669 2484 
Q 3125 2378 3379 2068 
Q 3634 1759 3634 1313 
Q 3634 634 3220 271 
Q 2806 -91 2034 -91 
Q 1263 -91 848 271 
Q 434 634 434 1313 
Q 434 1759 690 2068 
Q 947 2378 1403 2484 
z
M 1172 3481 
Q 1172 3119 1398 2916 
Q 1625 2713 2034 2713 
Q 2441 2713 2670 2916 
Q 2900 3119 2900 3481 
Q 2900 3844 2670 4047 
Q 2441 4250 2034 4250 
Q 1625 4250 1398 4047 
Q 1172 3844 1172 3481 
z
" transform="scale(0.015625)"/>
       </defs>
       <use xlink:href="#DejaVuSans-1b"/>
      </g>
     </g>
    </g>
    <g id="xtick_6">
     <g id="line2d_11">
      <path d="M 591.338038 316.8 
L 591.338038 46.8 
" clip-path="url(#p7a8d455813)" style="fill: none; stroke: #2a3340; stroke-opacity: 0.5; stroke-width: 0.8; stroke-linecap: square"/>
     </g>
     <g id="line2d_12">
      <g>
       <use xlink:href="#m76d1371688" x="591.338038" y="316.8" style="fill: #8b97a7; stroke: #8b97a7; stroke-width: 0.8"/>
      </g>
     </g>
     <g id="text_6">
      <!-- 10 -->
      <g style="fill: #8b97a7" transform="translate(584.339288 332.157422) scale(0.11 -0.11)">
       <defs>
        <path id="DejaVuSans-14" d="M 794 531 
L 1825 531 
L 1825 4091 
L 703 3866 
L 703 4441 
L 1819 4666 
L 2450 4666 
L 2450 531 
L 3481 531 
L 3481 0 
L 794 0 
L 794 531 
z
" transform="scale(0.015625)"/>
       </defs>
       <use xlink:href="#DejaVuSans-14"/>
       <use xlink:href="#DejaVuSans-13" transform="translate(63.625 0)"/>
      </g>
     </g>
    </g>
    <g id="xtick_7">
     <g id="line2d_13">
      <path d="M 684.226815 316.8 
L 684.226815 46.8 
" clip-path="url(#p7a8d455813)" style="fill: none; stroke: #2a3340; stroke-opacity: 0.5; stroke-width: 0.8; stroke-linecap: square"/>
     </g>
     <g id="line2d_14">
      <g>
       <use xlink:href="#m76d1371688" x="684.226815" y="316.8" style="fill: #8b97a7; stroke: #8b97a7; stroke-width: 0.8"/>
      </g>
     </g>
     <g id="text_7">
      <!-- 12 -->
      <g style="fill: #8b97a7" transform="translate(677.228065 332.157422) scale(0.11 -0.11)">
       <use xlink:href="#DejaVuSans-14"/>
       <use xlink:href="#DejaVuSans-15" transform="translate(63.625 0)"/>
      </g>
     </g>
    </g>
    <g id="text_8">
     <!-- time (minutes) -->
     <g style="fill: #8b97a7" transform="translate(365.1725 347.158281) scale(0.11 -0.11)">
      <defs>
       <path id="DejaVuSans-57" d="M 1172 4494 
L 1172 3500 
L 2356 3500 
L 2356 3053 
L 1172 3053 
L 1172 1153 
Q 1172 725 1289 603 
Q 1406 481 1766 481 
L 2356 481 
L 2356 0 
L 1766 0 
Q 1100 0 847 248 
Q 594 497 594 1153 
L 594 3053 
L 172 3053 
L 172 3500 
L 594 3500 
L 594 4494 
L 1172 4494 
z
" transform="scale(0.015625)"/>
       <path id="DejaVuSans-4c" d="M 603 3500 
L 1178 3500 
L 1178 0 
L 603 0 
L 603 3500 
z
M 603 4863 
L 1178 4863 
L 1178 4134 
L 603 4134 
L 603 4863 
z
" transform="scale(0.015625)"/>
       <path id="DejaVuSans-50" d="M 3328 2828 
Q 3544 3216 3844 3400 
Q 4144 3584 4550 3584 
Q 5097 3584 5394 3201 
Q 5691 2819 5691 2113 
L 5691 0 
L 5113 0 
L 5113 2094 
Q 5113 2597 4934 2840 
Q 4756 3084 4391 3084 
Q 3944 3084 3684 2787 
Q 3425 2491 3425 1978 
L 3425 0 
L 2847 0 
L 2847 2094 
Q 2847 2600 2669 2842 
Q 2491 3084 2119 3084 
Q 1678 3084 1418 2786 
Q 1159 2488 1159 1978 
L 1159 0 
L 581 0 
L 581 3500 
L 1159 3500 
L 1159 2956 
Q 1356 3278 1631 3431 
Q 1906 3584 2284 3584 
Q 2666 3584 2933 3390 
Q 3200 3197 3328 2828 
z
" transform="scale(0.015625)"/>
       <path id="DejaVuSans-48" d="M 3597 1894 
L 3597 1613 
L 953 1613 
Q 991 1019 1311 708 
Q 1631 397 2203 397 
Q 2534 397 2845 478 
Q 3156 559 3463 722 
L 3463 178 
Q 3153 47 2828 -22 
Q 2503 -91 2169 -91 
Q 1331 -91 842 396 
Q 353 884 353 1716 
Q 353 2575 817 3079 
Q 1281 3584 2069 3584 
Q 2775 3584 3186 3129 
Q 3597 2675 3597 1894 
z
M 3022 2063 
Q 3016 2534 2758 2815 
Q 2500 3097 2075 3097 
Q 1594 3097 1305 2825 
Q 1016 2553 972 2059 
L 3022 2063 
z
" transform="scale(0.015625)"/>
       <path id="DejaVuSans-3" transform="scale(0.015625)"/>
       <path id="DejaVuSans-b" d="M 1984 4856 
Q 1566 4138 1362 3434 
Q 1159 2731 1159 2009 
Q 1159 1288 1364 580 
Q 1569 -128 1984 -844 
L 1484 -844 
Q 1016 -109 783 600 
Q 550 1309 550 2009 
Q 550 2706 781 3412 
Q 1013 4119 1484 4856 
L 1984 4856 
z
" transform="scale(0.015625)"/>
       <path id="DejaVuSans-51" d="M 3513 2113 
L 3513 0 
L 2938 0 
L 2938 2094 
Q 2938 2591 2744 2837 
Q 2550 3084 2163 3084 
Q 1697 3084 1428 2787 
Q 1159 2491 1159 1978 
L 1159 0 
L 581 0 
L 581 3500 
L 1159 3500 
L 1159 2956 
Q 1366 3272 1645 3428 
Q 1925 3584 2291 3584 
Q 2894 3584 3203 3211 
Q 3513 2838 3513 2113 
z
" transform="scale(0.015625)"/>
       <path id="DejaVuSans-58" d="M 544 1381 
L 544 3500 
L 1119 3500 
L 1119 1403 
Q 1119 906 1312 657 
Q 1506 409 1894 409 
Q 2359 409 2629 706 
Q 2900 1003 2900 1516 
L 2900 3500 
L 3475 3500 
L 3475 0 
L 2900 0 
L 2900 538 
Q 2691 219 2414 64 
Q 2138 -91 1772 -91 
Q 1169 -91 856 284 
Q 544 659 544 1381 
z
M 1991 3584 
L 1991 3584 
z
" transform="scale(0.015625)"/>
       <path id="DejaVuSans-56" d="M 2834 3397 
L 2834 2853 
Q 2591 2978 2328 3040 
Q 2066 3103 1784 3103 
Q 1356 3103 1142 2972 
Q 928 2841 928 2578 
Q 928 2378 1081 2264 
Q 1234 2150 1697 2047 
L 1894 2003 
Q 2506 1872 2764 1633 
Q 3022 1394 3022 966 
Q 3022 478 2636 193 
Q 2250 -91 1575 -91 
Q 1294 -91 989 -36 
Q 684 19 347 128 
L 347 722 
Q 666 556 975 473 
Q 1284 391 1588 391 
Q 1994 391 2212 530 
Q 2431 669 2431 922 
Q 2431 1156 2273 1281 
Q 2116 1406 1581 1522 
L 1381 1569 
Q 847 1681 609 1914 
Q 372 2147 372 2553 
Q 372 3047 722 3315 
Q 1072 3584 1716 3584 
Q 2034 3584 2315 3537 
Q 2597 3491 2834 3397 
z
" transform="scale(0.015625)"/>
       <path id="DejaVuSans-c" d="M 513 4856 
L 1013 4856 
Q 1481 4119 1714 3412 
Q 1947 2706 1947 2009 
Q 1947 1309 1714 600 
Q 1481 -109 1013 -844 
L 513 -844 
Q 928 -128 1133 580 
Q 1338 1288 1338 2009 
Q 1338 2731 1133 3434 
Q 928 4138 513 4856 
z
" transform="scale(0.015625)"/>
      </defs>
      <use xlink:href="#DejaVuSans-57"/>
      <use xlink:href="#DejaVuSans-4c" transform="translate(39.203125 0)"/>
      <use xlink:href="#DejaVuSans-50" transform="translate(66.984375 0)"/>
      <use xlink:href="#DejaVuSans-48" transform="translate(164.390625 0)"/>
      <use xlink:href="#DejaVuSans-3" transform="translate(225.921875 0)"/>
      <use xlink:href="#DejaVuSans-b" transform="translate(257.703125 0)"/>
      <use xlink:href="#DejaVuSans-50" transform="translate(296.71875 0)"/>
      <use xlink:href="#DejaVuSans-4c" transform="translate(394.125 0)"/>
      <use xlink:href="#DejaVuSans-51" transform="translate(421.90625 0)"/>
      <use xlink:href="#DejaVuSans-58" transform="translate(485.28125 0)"/>
      <use xlink:href="#DejaVuSans-57" transform="translate(548.65625 0)"/>
      <use xlink:href="#DejaVuSans-48" transform="translate(587.859375 0)"/>
      <use xlink:href="#DejaVuSans-56" transform="translate(649.390625 0)"/>
      <use xlink:href="#DejaVuSans-c" transform="translate(701.484375 0)"/>
     </g>
    </g>
   </g>
   <g id="matplotlib.axis_2">
    <g id="ytick_1">
     <g id="line2d_15">
      <path d="M 99 312.992738 
L 712.8 312.992738 
" clip-path="url(#p7a8d455813)" style="fill: none; stroke: #2a3340; stroke-opacity: 0.5; stroke-width: 0.8; stroke-linecap: square"/>
     </g>
     <g id="line2d_16">
      <defs>
       <path id="m20b32fb039" d="M 0 0 
L -3.5 0 
" style="stroke: #8b97a7; stroke-width: 0.8"/>
      </defs>
      <g>
       <use xlink:href="#m20b32fb039" x="99" y="312.992738" style="fill: #8b97a7; stroke: #8b97a7; stroke-width: 0.8"/>
      </g>
     </g>
     <g id="text_9">
      <!-- −1500 -->
      <g style="fill: #8b97a7" transform="translate(54.787344 317.171449) scale(0.11 -0.11)">
       <defs>
        <path id="DejaVuSans-c9c" d="M 678 2272 
L 4684 2272 
L 4684 1741 
L 678 1741 
L 678 2272 
z
" transform="scale(0.015625)"/>
        <path id="DejaVuSans-18" d="M 691 4666 
L 3169 4666 
L 3169 4134 
L 1269 4134 
L 1269 2991 
Q 1406 3038 1543 3061 
Q 1681 3084 1819 3084 
Q 2600 3084 3056 2656 
Q 3513 2228 3513 1497 
Q 3513 744 3044 326 
Q 2575 -91 1722 -91 
Q 1428 -91 1123 -41 
Q 819 9 494 109 
L 494 744 
Q 775 591 1075 516 
Q 1375 441 1709 441 
Q 2250 441 2565 725 
Q 2881 1009 2881 1497 
Q 2881 1984 2565 2268 
Q 2250 2553 1709 2553 
Q 1456 2553 1204 2497 
Q 953 2441 691 2322 
L 691 4666 
z
" transform="scale(0.015625)"/>
       </defs>
       <use xlink:href="#DejaVuSans-c9c"/>
       <use xlink:href="#DejaVuSans-14" transform="translate(83.796875 0)"/>
       <use xlink:href="#DejaVuSans-18" transform="translate(147.421875 0)"/>
       <use xlink:href="#DejaVuSans-13" transform="translate(211.046875 0)"/>
       <use xlink:href="#DejaVuSans-13" transform="translate(274.671875 0)"/>
      </g>
     </g>
    </g>
    <g id="ytick_2">
     <g id="line2d_17">
      <path d="M 99 278.892721 
L 712.8 278.892721 
" clip-path="url(#p7a8d455813)" style="fill: none; stroke: #2a3340; stroke-opacity: 0.5; stroke-width: 0.8; stroke-linecap: square"/>
     </g>
     <g id="line2d_18">
      <g>
       <use xlink:href="#m20b32fb039" x="99" y="278.892721" style="fill: #8b97a7; stroke: #8b97a7; stroke-width: 0.8"/>
      </g>
     </g>
     <g id="text_10">
      <!-- −1000 -->
      <g style="fill: #8b97a7" transform="translate(54.787344 283.071432) scale(0.11 -0.11)">
       <use xlink:href="#DejaVuSans-c9c"/>
       <use xlink:href="#DejaVuSans-14" transform="translate(83.796875 0)"/>
       <use xlink:href="#DejaVuSans-13" transform="translate(147.421875 0)"/>
       <use xlink:href="#DejaVuSans-13" transform="translate(211.046875 0)"/>
       <use xlink:href="#DejaVuSans-13" transform="translate(274.671875 0)"/>
      </g>
     </g>
    </g>
    <g id="ytick_3">
     <g id="line2d_19">
      <path d="M 99 244.792704 
L 712.8 244.792704 
" clip-path="url(#p7a8d455813)" style="fill: none; stroke: #2a3340; stroke-opacity: 0.5; stroke-width: 0.8; stroke-linecap: square"/>
     </g>
     <g id="line2d_20">
      <g>
       <use xlink:href="#m20b32fb039" x="99" y="244.792704" style="fill: #8b97a7; stroke: #8b97a7; stroke-width: 0.8"/>
      </g>
     </g>
     <g id="text_11">
      <!-- −500 -->
      <g style="fill: #8b97a7" transform="translate(61.786094 248.971415) scale(0.11 -0.11)">
       <use xlink:href="#DejaVuSans-c9c"/>
       <use xlink:href="#DejaVuSans-18" transform="translate(83.796875 0)"/>
       <use xlink:href="#DejaVuSans-13" transform="translate(147.421875 0)"/>
       <use xlink:href="#DejaVuSans-13" transform="translate(211.046875 0)"/>
      </g>
     </g>
    </g>
    <g id="ytick_4">
     <g id="line2d_21">
      <path d="M 99 210.692687 
L 712.8 210.692687 
" clip-path="url(#p7a8d455813)" style="fill: none; stroke: #2a3340; stroke-opacity: 0.5; stroke-width: 0.8; stroke-linecap: square"/>
     </g>
     <g id="line2d_22">
      <g>
       <use xlink:href="#m20b32fb039" x="99" y="210.692687" style="fill: #8b97a7; stroke: #8b97a7; stroke-width: 0.8"/>
      </g>
     </g>
     <g id="text_12">
      <!-- 0 -->
      <g style="fill: #8b97a7" transform="translate(85.00125 214.871398) scale(0.11 -0.11)">
       <use xlink:href="#DejaVuSans-13"/>
      </g>
     </g>
    </g>
    <g id="ytick_5">
     <g id="line2d_23">
      <path d="M 99 176.59267 
L 712.8 176.59267 
" clip-path="url(#p7a8d455813)" style="fill: none; stroke: #2a3340; stroke-opacity: 0.5; stroke-width: 0.8; stroke-linecap: square"/>
     </g>
     <g id="line2d_24">
      <g>
       <use xlink:href="#m20b32fb039" x="99" y="176.59267" style="fill: #8b97a7; stroke: #8b97a7; stroke-width: 0.8"/>
      </g>
     </g>
     <g id="text_13">
      <!-- 500 -->
      <g style="fill: #8b97a7" transform="translate(71.00375 180.771381) scale(0.11 -0.11)">
       <use xlink:href="#DejaVuSans-18"/>
       <use xlink:href="#DejaVuSans-13" transform="translate(63.625 0)"/>
       <use xlink:href="#DejaVuSans-13" transform="translate(127.25 0)"/>
      </g>
     </g>
    </g>
    <g id="ytick_6">
     <g id="line2d_25">
      <path d="M 99 142.492653 
L 712.8 142.492653 
" clip-path="url(#p7a8d455813)" style="fill: none; stroke: #2a3340; stroke-opacity: 0.5; stroke-width: 0.8; stroke-linecap: square"/>
     </g>
     <g id="line2d_26">
      <g>
       <use xlink:href="#m20b32fb039" x="99" y="142.492653" style="fill: #8b97a7; stroke: #8b97a7; stroke-width: 0.8"/>
      </g>
     </g>
     <g id="text_14">
      <!-- 1000 -->
      <g style="fill: #8b97a7" transform="translate(64.005 146.671363) scale(0.11 -0.11)">
       <use xlink:href="#DejaVuSans-14"/>
       <use xlink:href="#DejaVuSans-13" transform="translate(63.625 0)"/>
       <use xlink:href="#DejaVuSans-13" transform="translate(127.25 0)"/>
       <use xlink:href="#DejaVuSans-13" transform="translate(190.875 0)"/>
      </g>
     </g>
    </g>
    <g id="ytick_7">
     <g id="line2d_27">
      <path d="M 99 108.392635 
L 712.8 108.392635 
" clip-path="url(#p7a8d455813)" style="fill: none; stroke: #2a3340; stroke-opacity: 0.5; stroke-width: 0.8; stroke-linecap: square"/>
     </g>
     <g id="line2d_28">
      <g>
       <use xlink:href="#m20b32fb039" x="99" y="108.392635" style="fill: #8b97a7; stroke: #8b97a7; stroke-width: 0.8"/>
      </g>
     </g>
     <g id="text_15">
      <!-- 1500 -->
      <g style="fill: #8b97a7" transform="translate(64.005 112.571346) scale(0.11 -0.11)">
       <use xlink:href="#DejaVuSans-14"/>
       <use xlink:href="#DejaVuSans-18" transform="translate(63.625 0)"/>
       <use xlink:href="#DejaVuSans-13" transform="translate(127.25 0)"/>
       <use xlink:href="#DejaVuSans-13" transform="translate(190.875 0)"/>
      </g>
     </g>
    </g>
    <g id="ytick_8">
     <g id="line2d_29">
      <path d="M 99 74.292618 
L 712.8 74.292618 
" clip-path="url(#p7a8d455813)" style="fill: none; stroke: #2a3340; stroke-opacity: 0.5; stroke-width: 0.8; stroke-linecap: square"/>
     </g>
     <g id="line2d_30">
      <g>
       <use xlink:href="#m20b32fb039" x="99" y="74.292618" style="fill: #8b97a7; stroke: #8b97a7; stroke-width: 0.8"/>
      </g>
     </g>
     <g id="text_16">
      <!-- 2000 -->
      <g style="fill: #8b97a7" transform="translate(64.005 78.471329) scale(0.11 -0.11)">
       <use xlink:href="#DejaVuSans-15"/>
       <use xlink:href="#DejaVuSans-13" transform="translate(63.625 0)"/>
       <use xlink:href="#DejaVuSans-13" transform="translate(127.25 0)"/>
       <use xlink:href="#DejaVuSans-13" transform="translate(190.875 0)"/>
      </g>
     </g>
    </g>
    <g id="text_17">
     <!-- inter-speaker drift (µs, recentred) -->
     <g style="fill: #8b97a7" transform="translate(48.144766 273.508203) rotate(-90) scale(0.11 -0.11)">
      <defs>
       <path id="DejaVuSans-55" d="M 2631 2963 
Q 2534 3019 2420 3045 
Q 2306 3072 2169 3072 
Q 1681 3072 1420 2755 
Q 1159 2438 1159 1844 
L 1159 0 
L 581 0 
L 581 3500 
L 1159 3500 
L 1159 2956 
Q 1341 3275 1631 3429 
Q 1922 3584 2338 3584 
Q 2397 3584 2469 3576 
Q 2541 3569 2628 3553 
L 2631 2963 
z
" transform="scale(0.015625)"/>
       <path id="DejaVuSans-10" d="M 313 2009 
L 1997 2009 
L 1997 1497 
L 313 1497 
L 313 2009 
z
" transform="scale(0.015625)"/>
       <path id="DejaVuSans-53" d="M 1159 525 
L 1159 -1331 
L 581 -1331 
L 581 3500 
L 1159 3500 
L 1159 2969 
Q 1341 3281 1617 3432 
Q 1894 3584 2278 3584 
Q 2916 3584 3314 3078 
Q 3713 2572 3713 1747 
Q 3713 922 3314 415 
Q 2916 -91 2278 -91 
Q 1894 -91 1617 61 
Q 1341 213 1159 525 
z
M 3116 1747 
Q 3116 2381 2855 2742 
Q 2594 3103 2138 3103 
Q 1681 3103 1420 2742 
Q 1159 2381 1159 1747 
Q 1159 1113 1420 752 
Q 1681 391 2138 391 
Q 2594 391 2855 752 
Q 3116 1113 3116 1747 
z
" transform="scale(0.015625)"/>
       <path id="DejaVuSans-44" d="M 2194 1759 
Q 1497 1759 1228 1600 
Q 959 1441 959 1056 
Q 959 750 1161 570 
Q 1363 391 1709 391 
Q 2188 391 2477 730 
Q 2766 1069 2766 1631 
L 2766 1759 
L 2194 1759 
z
M 3341 1997 
L 3341 0 
L 2766 0 
L 2766 531 
Q 2569 213 2275 61 
Q 1981 -91 1556 -91 
Q 1019 -91 701 211 
Q 384 513 384 1019 
Q 384 1609 779 1909 
Q 1175 2209 1959 2209 
L 2766 2209 
L 2766 2266 
Q 2766 2663 2505 2880 
Q 2244 3097 1772 3097 
Q 1472 3097 1187 3025 
Q 903 2953 641 2809 
L 641 3341 
Q 956 3463 1253 3523 
Q 1550 3584 1831 3584 
Q 2591 3584 2966 3190 
Q 3341 2797 3341 1997 
z
" transform="scale(0.015625)"/>
       <path id="DejaVuSans-4e" d="M 581 4863 
L 1159 4863 
L 1159 1991 
L 2875 3500 
L 3609 3500 
L 1753 1863 
L 3688 0 
L 2938 0 
L 1159 1709 
L 1159 0 
L 581 0 
L 581 4863 
z
" transform="scale(0.015625)"/>
       <path id="DejaVuSans-47" d="M 2906 2969 
L 2906 4863 
L 3481 4863 
L 3481 0 
L 2906 0 
L 2906 525 
Q 2725 213 2448 61 
Q 2172 -91 1784 -91 
Q 1150 -91 751 415 
Q 353 922 353 1747 
Q 353 2572 751 3078 
Q 1150 3584 1784 3584 
Q 2172 3584 2448 3432 
Q 2725 3281 2906 2969 
z
M 947 1747 
Q 947 1113 1208 752 
Q 1469 391 1925 391 
Q 2381 391 2643 752 
Q 2906 1113 2906 1747 
Q 2906 2381 2643 2742 
Q 2381 3103 1925 3103 
Q 1469 3103 1208 2742 
Q 947 2381 947 1747 
z
" transform="scale(0.015625)"/>
       <path id="DejaVuSans-49" d="M 2375 4863 
L 2375 4384 
L 1825 4384 
Q 1516 4384 1395 4259 
Q 1275 4134 1275 3809 
L 1275 3500 
L 2222 3500 
L 2222 3053 
L 1275 3053 
L 1275 0 
L 697 0 
L 697 3053 
L 147 3053 
L 147 3500 
L 697 3500 
L 697 3744 
Q 697 4328 969 4595 
Q 1241 4863 1831 4863 
L 2375 4863 
z
" transform="scale(0.015625)"/>
       <path id="DejaVuSans-77" d="M 544 -1331 
L 544 3500 
L 1119 3500 
L 1119 1325 
Q 1119 872 1334 640 
Q 1550 409 1972 409 
Q 2434 409 2667 671 
Q 2900 934 2900 1459 
L 2900 3500 
L 3475 3500 
L 3475 806 
Q 3475 619 3529 530 
Q 3584 441 3700 441 
Q 3728 441 3778 458 
Q 3828 475 3916 513 
L 3916 50 
Q 3788 -22 3673 -56 
Q 3559 -91 3450 -91 
Q 3234 -91 3106 31 
Q 2978 153 2931 403 
Q 2775 156 2548 32 
Q 2322 -91 2016 -91 
Q 1697 -91 1473 31 
Q 1250 153 1119 397 
L 1119 -1331 
L 544 -1331 
z
" transform="scale(0.015625)"/>
       <path id="DejaVuSans-f" d="M 750 794 
L 1409 794 
L 1409 256 
L 897 -744 
L 494 -744 
L 750 256 
L 750 794 
z
" transform="scale(0.015625)"/>
       <path id="DejaVuSans-46" d="M 3122 3366 
L 3122 2828 
Q 2878 2963 2633 3030 
Q 2388 3097 2138 3097 
Q 1578 3097 1268 2742 
Q 959 2388 959 1747 
Q 959 1106 1268 751 
Q 1578 397 2138 397 
Q 2388 397 2633 464 
Q 2878 531 3122 666 
L 3122 134 
Q 2881 22 2623 -34 
Q 2366 -91 2075 -91 
Q 1284 -91 818 406 
Q 353 903 353 1747 
Q 353 2603 823 3093 
Q 1294 3584 2113 3584 
Q 2378 3584 2631 3529 
Q 2884 3475 3122 3366 
z
" transform="scale(0.015625)"/>
      </defs>
      <use xlink:href="#DejaVuSans-4c"/>
      <use xlink:href="#DejaVuSans-51" transform="translate(27.78125 0)"/>
      <use xlink:href="#DejaVuSans-57" transform="translate(91.15625 0)"/>
      <use xlink:href="#DejaVuSans-48" transform="translate(130.359375 0)"/>
      <use xlink:href="#DejaVuSans-55" transform="translate(191.890625 0)"/>
      <use xlink:href="#DejaVuSans-10" transform="translate(226.609375 0)"/>
      <use xlink:href="#DejaVuSans-56" transform="translate(262.6875 0)"/>
      <use xlink:href="#DejaVuSans-53" transform="translate(314.78125 0)"/>
      <use xlink:href="#DejaVuSans-48" transform="translate(378.265625 0)"/>
      <use xlink:href="#DejaVuSans-44" transform="translate(439.796875 0)"/>
      <use xlink:href="#DejaVuSans-4e" transform="translate(501.078125 0)"/>
      <use xlink:href="#DejaVuSans-48" transform="translate(555.421875 0)"/>
      <use xlink:href="#DejaVuSans-55" transform="translate(616.953125 0)"/>
      <use xlink:href="#DejaVuSans-3" transform="translate(658.0625 0)"/>
      <use xlink:href="#DejaVuSans-47" transform="translate(689.84375 0)"/>
      <use xlink:href="#DejaVuSans-55" transform="translate(753.328125 0)"/>
      <use xlink:href="#DejaVuSans-4c" transform="translate(794.4375 0)"/>
      <use xlink:href="#DejaVuSans-49" transform="translate(822.21875 0)"/>
      <use xlink:href="#DejaVuSans-57" transform="translate(855.671875 0)"/>
      <use xlink:href="#DejaVuSans-3" transform="translate(894.875 0)"/>
      <use xlink:href="#DejaVuSans-b" transform="translate(926.65625 0)"/>
      <use xlink:href="#DejaVuSans-77" transform="translate(965.671875 0)"/>
      <use xlink:href="#DejaVuSans-56" transform="translate(1029.296875 0)"/>
      <use xlink:href="#DejaVuSans-f" transform="translate(1081.390625 0)"/>
      <use xlink:href="#DejaVuSans-3" transform="translate(1113.171875 0)"/>
      <use xlink:href="#DejaVuSans-55" transform="translate(1144.953125 0)"/>
      <use xlink:href="#DejaVuSans-48" transform="translate(1183.859375 0)"/>
      <use xlink:href="#DejaVuSans-46" transform="translate(1245.390625 0)"/>
      <use xlink:href="#DejaVuSans-48" transform="translate(1300.375 0)"/>
      <use xlink:href="#DejaVuSans-51" transform="translate(1361.90625 0)"/>
      <use xlink:href="#DejaVuSans-57" transform="translate(1425.28125 0)"/>
      <use xlink:href="#DejaVuSans-55" transform="translate(1464.484375 0)"/>
      <use xlink:href="#DejaVuSans-48" transform="translate(1503.390625 0)"/>
      <use xlink:href="#DejaVuSans-47" transform="translate(1564.921875 0)"/>
      <use xlink:href="#DejaVuSans-c" transform="translate(1628.40625 0)"/>
     </g>
    </g>
   </g>
   <g id="line2d_31">
    <path d="M 99 210.692687 
L 712.8 210.692687 
" clip-path="url(#p7a8d455813)" style="fill: none; stroke: #8b97a7; stroke-opacity: 0.6; stroke-width: 0.8; stroke-linecap: square"/>
   </g>
   <g id="line2d_32">
    <path d="M 162.416596 59.072727 
L 167.370604 64.334984 
L 168.609104 65.825454 
L 171.08611 68.318825 
L 173.563118 70.629715 
L 177.278626 74.396577 
L 179.755632 76.907087 
L 182.23264 79.145347 
L 183.471127 81.822958 
L 184.709646 81.669915 
L 188.425155 85.331463 
L 189.663661 86.332851 
L 200.810197 96.650988 
L 204.52571 99.963943 
L 205.764214 101.148615 
L 208.241226 103.098236 
L 210.718234 105.364788 
L 213.195246 107.365797 
L 215.672255 109.535408 
L 218.149265 111.613255 
L 220.626273 113.930192 
L 221.864781 114.772836 
L 223.103286 115.847872 
L 224.341787 117.175897 
L 225.580292 118.275812 
L 226.818799 119.196683 
L 230.53431 122.650898 
L 231.772819 123.421195 
L 234.249831 125.361142 
L 247.873392 136.454127 
L 252.827417 140.270989 
L 255.304427 142.363513 
L 256.542936 143.130791 
L 261.496961 146.908739 
L 262.735465 148.062515 
L 265.21248 149.761717 
L 266.450985 150.763651 
L 268.928001 152.371249 
L 270.166509 153.141805 
L 272.64352 155.172506 
L 276.359041 157.81707 
L 277.597552 158.401114 
L 278.836057 159.428203 
L 280.074567 160.043078 
L 285.028593 163.738068 
L 291.221131 167.903767 
L 292.459641 168.505316 
L 293.698149 169.359811 
L 294.936658 170.039805 
L 296.175165 170.907188 
L 297.413677 171.357159 
L 298.652184 172.264297 
L 299.890695 172.79357 
L 301.129201 173.72161 
L 302.367712 174.300584 
L 307.321744 177.494797 
L 311.037269 179.798902 
L 312.275775 180.777637 
L 313.514286 181.256955 
L 314.752791 182.325734 
L 315.991302 182.832168 
L 317.22981 183.694907 
L 318.468315 184.717368 
L 319.706825 185.29508 
L 320.945331 186.265093 
L 327.137878 189.623004 
L 329.614896 191.065988 
L 330.853405 191.816925 
L 332.091915 192.40888 
L 333.330424 193.147637 
L 334.568934 193.744321 
L 338.28446 195.957012 
L 339.522973 196.315178 
L 340.761529 192.85173 
L 341.999989 197.850078 
L 343.238493 199.027822 
L 344.477017 198.393236 
L 345.715515 200.119499 
L 346.954023 200.887304 
L 350.669555 202.582874 
L 353.146573 203.952784 
L 358.100613 206.457816 
L 360.577638 207.280584 
L 366.770193 209.925285 
L 368.008701 210.692687 
L 370.485723 211.818643 
L 372.962746 212.761816 
L 374.201255 213.462831 
L 375.439768 213.795234 
L 377.91679 214.894043 
L 379.155303 215.26442 
L 380.393817 215.470873 
L 381.632326 216.21246 
L 384.10935 217.080406 
L 385.34786 217.695896 
L 391.540418 220.083494 
L 392.778929 220.590979 
L 394.017443 220.884814 
L 397.732979 222.24904 
L 401.448517 223.41982 
L 402.687027 223.976087 
L 403.925543 224.122215 
L 405.164053 224.668748 
L 407.64108 225.371066 
L 411.356618 226.514434 
L 413.833644 227.197602 
L 415.072155 227.697704 
L 417.549182 228.370397 
L 418.787694 228.771538 
L 420.026222 227.867462 
L 421.264722 229.291692 
L 429.934318 231.345372 
L 431.172831 231.740291 
L 433.64986 232.21082 
L 434.888376 232.226253 
L 436.126891 232.409765 
L 437.365404 232.773613 
L 438.603916 233.269414 
L 439.842431 233.445294 
L 441.080943 233.860397 
L 442.319458 234.079654 
L 443.557969 234.556209 
L 449.750546 235.288782 
L 450.989061 235.425583 
L 452.227575 235.721019 
L 453.466087 236.18275 
L 455.943117 236.545584 
L 458.420148 236.766501 
L 459.658662 237.060432 
L 460.897177 237.210571 
L 462.135691 237.515958 
L 465.851237 237.990769 
L 467.089751 238.207992 
L 470.805301 238.355029 
L 472.043816 238.544447 
L 475.759367 238.533404 
L 478.236397 238.907871 
L 479.474915 238.755966 
L 481.951951 238.651142 
L 483.190464 238.940876 
L 484.428982 238.848856 
L 486.906015 238.979792 
L 489.383049 239.010046 
L 495.575631 239.238598 
L 504.24525 239.290608 
L 507.960799 239.453113 
L 511.67635 239.477387 
L 514.153384 239.427045 
L 520.345969 239.435936 
L 522.823002 239.534885 
L 524.061523 239.219081 
L 525.300039 239.30828 
L 526.538541 240.668716 
L 527.777075 239.109029 
L 529.015594 239.00018 
L 530.254111 239.01285 
L 531.492612 240.399301 
L 532.731132 240.102486 
L 533.969668 238.440946 
L 536.446708 237.883447 
L 537.685212 239.030979 
L 538.923731 238.916496 
L 540.16227 236.950436 
L 542.639307 236.744725 
L 543.877809 237.994408 
L 545.116328 237.811631 
L 546.354863 236.253227 
L 548.831902 235.819039 
L 550.070408 236.831449 
L 551.308927 236.63452 
L 552.547464 234.901126 
L 553.785983 234.692909 
L 555.024504 234.335393 
L 556.263008 235.521277 
L 557.501527 235.302554 
L 558.740063 233.629821 
L 561.217101 233.274711 
L 562.455606 234.369865 
L 563.694125 234.147582 
L 564.932662 232.448172 
L 567.409701 231.996618 
L 568.648205 233.13935 
L 569.886726 232.8053 
L 571.125264 230.973813 
L 572.363785 230.632396 
L 573.602304 230.425891 
L 574.840808 231.531055 
L 576.07933 231.142465 
L 577.317866 229.44312 
L 579.794907 228.887312 
L 581.033413 229.823898 
L 582.271935 229.420494 
L 583.510472 227.5979 
L 584.748997 226.949017 
L 585.987516 226.742972 
L 587.22603 227.036397 
L 588.464571 224.938901 
L 589.70309 224.746102 
L 592.180132 224.003868 
L 593.418638 224.977026 
L 594.657158 224.737224 
L 595.895695 222.984934 
L 597.13422 222.253059 
L 598.37274 222.020421 
L 599.611249 222.703182 
L 600.849771 222.260238 
L 602.088307 220.643272 
L 604.565354 219.498818 
L 605.803874 219.190459 
L 607.042382 220.03949 
L 608.28092 218.118003 
L 610.757962 217.456322 
L 611.996486 216.863475 
L 613.23499 217.99101 
L 614.473527 216.233513 
L 616.950576 214.916767 
L 618.189095 214.733092 
L 619.427604 215.488668 
L 620.666142 213.5941 
L 623.14319 212.40525 
L 624.381709 212.232656 
L 625.620217 212.972138 
L 626.858757 210.942847 
L 629.335796 210.509002 
L 630.574322 209.742 
L 631.812829 210.664825 
L 633.051368 208.693512 
L 635.528412 207.815879 
L 636.766938 207.00324 
L 638.005443 208.065978 
L 639.243981 206.196679 
L 640.482506 205.492891 
L 642.959552 204.463166 
L 644.198059 205.332101 
L 645.436598 203.436712 
L 646.675123 202.690928 
L 647.913647 202.122528 
L 649.152172 201.395419 
L 650.390677 202.435261 
L 651.629215 200.621882 
L 652.867742 199.769412 
L 654.106288 197.154094 
L 655.344796 197.993221 
L 656.5833 199.113387 
L 657.821833 197.745705 
L 659.060361 196.75479 
L 660.298882 196.442424 
L 661.53741 195.456236 
L 662.775916 196.437927 
L 664.014459 194.115876 
L 665.252982 193.605091 
L 666.491509 192.72162 
L 667.730032 192.169877 
L 668.968558 191.421529 
L 670.207081 190.84683 
L 672.684131 189.463933 
L 673.922654 188.929551 
L 675.161181 188.058261 
L 676.399702 187.749801 
L 677.638229 186.864086 
L 678.876751 186.385085 
L 681.3538 185.047952 
L 682.592328 184.131431 
L 682.592328 184.131431 
" clip-path="url(#p7a8d455813)" style="fill: none; stroke: #35e3b3; stroke-width: 1.6; stroke-linecap: square"/>
   </g>
   <g id="line2d_33">
    <path d="M 126.9 298.522396 
L 127.682245 298.542924 
L 128.465319 304.527273 
L 129.247858 197.687895 
L 130.030209 197.687895 
L 130.813938 197.839436 
L 131.596978 198.50309 
L 132.377539 194.3864 
L 133.159598 198.50309 
L 133.941386 200.244919 
L 134.725452 200.244919 
L 135.509564 203.632074 
L 137.07675 203.632074 
L 137.859235 202.60389 
L 138.643768 202.60389 
L 139.427401 213.016398 
L 140.990955 213.016398 
L 141.77172 212.251194 
L 144.117863 212.251194 
L 144.901813 208.16799 
L 147.24987 208.16799 
L 148.031683 211.829309 
L 149.597807 211.829309 
L 150.380983 212.789224 
L 151.163767 212.789224 
L 151.946579 213.537788 
L 155.867991 213.537788 
L 156.650065 212.789224 
L 157.430777 209.127905 
L 158.211731 209.127905 
L 158.994759 212.747554 
L 159.778068 212.747554 
L 160.561758 209.127905 
L 164.47302 209.127905 
L 165.256535 212.814867 
L 167.602329 212.814867 
L 168.385989 209.575502 
L 169.166847 209.694443 
L 169.950864 216.553457 
L 170.731265 216.553457 
L 171.513469 209.694443 
L 172.294781 209.694443 
L 173.076983 216.553457 
L 173.858705 216.947789 
L 174.641135 210.088776 
L 177.770448 210.088776 
L 178.55346 211.970415 
L 180.900336 211.970415 
L 181.683645 210.088776 
L 182.464653 210.088776 
L 183.249068 209.694443 
L 185.597966 209.694443 
L 186.37963 210.088776 
L 187.944029 210.088776 
L 188.727882 204.776129 
L 189.508825 211.576082 
L 190.292226 211.576082 
L 191.074078 203.081427 
L 192.638584 203.081427 
L 194.203627 205.170462 
L 195.770589 205.170462 
L 196.553334 207.758449 
L 202.026367 207.758449 
L 202.809202 216.345651 
L 203.593809 216.345651 
L 204.3774 216.996962 
L 206.728402 216.996962 
L 207.511281 217.592825 
L 209.858008 217.592825 
L 210.641464 217.95565 
L 211.424215 217.95565 
L 212.205951 216.32751 
L 215.33263 216.32751 
L 216.113485 214.115578 
L 216.897874 214.115578 
L 217.679905 209.983202 
L 219.244429 209.983202 
L 220.026912 211.597088 
L 220.80802 209.686805 
L 224.721104 209.686805 
L 225.503757 208.072919 
L 228.6335 208.072919 
L 229.41629 209.686805 
L 230.979794 209.582527 
L 238.017826 209.582527 
L 238.798992 207.727145 
L 239.580259 210.262208 
L 240.363734 207.727145 
L 241.147061 210.262208 
L 241.930142 210.262208 
L 242.710897 207.727145 
L 243.493434 210.262208 
L 248.188023 210.207989 
L 248.969517 207.201459 
L 253.668331 207.201459 
L 254.451839 205.204357 
L 255.232239 205.204357 
L 256.016904 201.614512 
L 259.148158 201.614512 
L 259.929988 206.898855 
L 260.711082 206.898855 
L 261.495402 190.107052 
L 262.27931 195.693999 
L 263.061114 195.693999 
L 263.845562 209.00078 
L 266.981424 209.00078 
L 267.765107 210.444371 
L 268.546351 210.444371 
L 269.329435 202.343843 
L 270.112991 202.343843 
L 270.893987 203.216122 
L 276.373086 203.216122 
L 277.156577 209.745184 
L 281.073872 209.745184 
L 281.856821 197.508393 
L 283.421221 197.508393 
L 284.203613 209.745184 
L 288.117039 209.745184 
L 288.899163 222.098188 
L 292.811003 222.098188 
L 293.594178 225.643226 
L 294.375304 225.643226 
L 295.158689 222.098188 
L 295.939915 225.37936 
L 296.722477 220.600106 
L 299.066807 220.600106 
L 299.847513 217.862215 
L 300.629591 199.177316 
L 304.54359 199.177316 
L 305.324895 221.551292 
L 306.106791 221.551292 
L 306.886704 199.618093 
L 308.452304 199.618093 
L 309.235231 200.304048 
L 314.715771 200.304048 
L 315.499339 199.618093 
L 316.280781 200.304048 
L 317.064442 199.618093 
L 317.848287 199.618093 
L 318.633047 197.08187 
L 321.766963 197.08187 
L 322.54926 194.657427 
L 325.678834 194.657427 
L 326.464009 195.343383 
L 327.246194 195.343383 
L 328.029462 194.657427 
L 328.810885 190.158952 
L 331.156262 190.158952 
L 331.938165 193.54222 
L 332.720961 190.158952 
L 335.069889 190.158952 
L 335.85371 193.54222 
L 339.76651 193.54222 
L 340.551234 201.189762 
L 341.334017 201.189762 
L 342.116485 206.128741 
L 344.461108 206.128741 
L 345.243111 207.894167 
L 347.588919 207.894167 
L 348.372318 209.518419 
L 349.154651 209.518419 
L 349.938836 210.006799 
L 351.50308 210.006799 
L 352.287878 209.518419 
L 353.071424 210.941003 
L 357.767621 210.941003 
L 358.549218 212.349539 
L 360.113943 212.349539 
L 360.89743 206.24734 
L 361.679324 204.633182 
L 364.02846 204.633182 
L 364.809508 206.01055 
L 365.592617 202.520004 
L 366.374362 206.01055 
L 367.157689 208.099449 
L 367.938999 209.073277 
L 371.849229 209.073277 
L 372.630384 208.099449 
L 373.413176 208.099449 
L 374.193727 207.319513 
L 382.017215 207.254996 
L 382.800207 205.389998 
L 383.581933 205.389998 
L 384.363688 207.187001 
L 388.27832 207.187001 
L 389.062309 209.051999 
L 393.759695 209.051999 
L 394.54265 207.187001 
L 396.890018 207.187001 
L 397.671333 215.539186 
L 398.456886 211.270614 
L 399.239182 211.270614 
L 400.022339 203.589722 
L 400.803783 203.589722 
L 401.584622 207.487081 
L 404.713132 207.487081 
L 405.497462 207.669584 
L 406.280877 207.669584 
L 407.062397 207.487081 
L 407.846948 211.488308 
L 412.546328 211.488308 
L 413.3296 220.091265 
L 415.677755 220.091265 
L 416.458772 215.640463 
L 418.807967 215.640463 
L 419.589648 220.091265 
L 420.374635 216.03275 
L 424.28532 216.03275 
L 425.0691 216.475368 
L 425.849697 208.23885 
L 427.4133 208.23885 
L 428.19563 216.475368 
L 428.978175 217.357535 
L 429.761693 216.475368 
L 430.543197 219.688067 
L 432.892854 219.688067 
L 433.673773 217.527149 
L 434.456067 217.527149 
L 435.238092 212.946084 
L 436.02196 212.946084 
L 436.80299 209.733385 
L 438.366379 209.733385 
L 439.149723 211.451549 
L 441.493872 211.451549 
L 442.275889 208.23885 
L 443.056739 211.451549 
L 444.622222 211.451549 
L 445.405387 211.720598 
L 446.186729 211.720598 
L 446.970574 213.21261 
L 453.227607 213.287698 
L 454.008686 210.027668 
L 459.485219 210.027668 
L 460.267077 216.583669 
L 465.747509 216.53327 
L 466.528325 212.26879 
L 468.096966 212.26879 
L 468.881032 216.954746 
L 469.662176 216.954746 
L 470.445189 218.637718 
L 471.228356 216.329215 
L 472.010606 199.836333 
L 476.70786 199.836333 
L 477.491971 203.708185 
L 478.276731 208.732959 
L 479.842106 208.732959 
L 480.62619 199.836333 
L 482.19232 199.836333 
L 482.977448 201.034539 
L 485.324918 201.034539 
L 486.109511 199.836333 
L 487.674938 199.73526 
L 488.456802 204.909801 
L 489.239538 207.224374 
L 490.021295 204.909801 
L 490.805882 204.909801 
L 491.587602 206.20908 
L 492.369598 206.20908 
L 493.15119 204.909801 
L 493.934748 204.909801 
L 494.717212 208.523653 
L 495.502552 207.224374 
L 497.06754 207.224374 
L 497.849254 208.241441 
L 498.629801 208.241441 
L 499.412829 206.740836 
L 506.458479 206.740836 
L 507.239315 207.071401 
L 508.801936 207.071401 
L 509.583372 206.740836 
L 517.403571 206.740836 
L 518.185299 203.440363 
L 518.966973 207.616456 
L 520.53312 207.616456 
L 521.315246 203.440363 
L 522.097949 203.440363 
L 522.879832 203.770929 
L 525.230502 203.770929 
L 526.012611 207.947022 
L 526.795905 207.947022 
L 527.577105 216.100404 
L 528.359598 216.100404 
L 529.141091 223.475965 
L 529.924636 223.475965 
L 530.707323 218.209695 
L 531.490716 218.209695 
L 532.272849 231.968438 
L 533.056724 231.968438 
L 533.841878 218.119193 
L 541.665225 218.119193 
L 542.447455 215.775772 
L 545.576328 215.775772 
L 546.358978 217.329573 
L 548.70815 217.329573 
L 549.489028 218.459716 
L 551.840645 218.459716 
L 552.621796 213.336461 
L 554.972752 213.336461 
L 555.755251 218.459716 
L 556.540355 218.459716 
L 557.320373 223.675655 
L 558.104224 223.675655 
L 558.888193 228.075784 
L 562.020936 228.075784 
L 562.803354 222.95253 
L 567.499973 222.95253 
L 568.281815 218.5524 
L 573.759729 218.5524 
L 574.542014 231.140967 
L 575.325422 236.29498 
L 576.89158 236.29498 
L 577.674725 239.627915 
L 580.020711 239.627915 
L 580.801614 228.715501 
L 583.149629 228.715501 
L 583.930024 227.828491 
L 584.711426 218.586773 
L 585.491843 227.828491 
L 586.274857 222.455829 
L 587.055003 235.382668 
L 590.967384 235.382668 
L 591.747974 235.875209 
L 592.528375 237.216976 
L 593.310738 235.382668 
L 594.875151 235.382668 
L 595.659498 237.216976 
L 605.060912 237.216976 
L 605.84228 224.242397 
L 608.190829 224.279293 
L 608.972862 233.325482 
L 609.756344 224.216481 
L 610.537548 224.216481 
L 611.321965 226.028829 
L 612.10372 225.966016 
L 612.885776 223.210189 
L 613.670208 223.025435 
L 616.016983 223.025435 
L 616.79818 226.965965 
L 618.364765 226.965965 
L 619.149495 227.150719 
L 619.932488 227.150719 
L 620.715585 224.73787 
L 624.633716 224.808048 
L 625.417582 222.477312 
L 630.117096 222.477312 
L 630.898984 221.279787 
L 634.8123 221.20961 
L 635.594352 222.407134 
L 636.377156 226.694256 
L 637.940466 226.694256 
L 638.722478 225.276787 
L 644.202644 225.276787 
L 644.984745 216.285158 
L 645.768064 226.90895 
L 647.333895 226.90895 
L 648.114987 227.878959 
L 648.897793 229.450083 
L 649.678792 228.480074 
L 652.024351 228.480074 
L 652.806082 233.502802 
L 653.589142 234.472811 
L 654.369693 234.472811 
L 655.152106 230.804195 
L 656.717581 230.804195 
L 657.497958 232.424219 
L 658.281397 230.804195 
L 659.063866 229.834186 
L 659.846025 229.834186 
L 660.628755 229.22816 
L 661.413452 229.834186 
L 662.196542 229.834186 
L 662.980645 230.804195 
L 663.762332 215.106048 
L 664.544907 215.106048 
L 665.326229 215.712073 
L 667.675104 215.712073 
L 668.456099 215.106048 
L 670.020953 215.106048 
L 670.803111 234.585478 
L 671.585904 229.106901 
L 676.284026 229.106901 
L 677.066802 218.149951 
L 677.850168 218.149951 
L 678.633237 229.106901 
L 683.333407 229.106901 
L 684.115966 224.551889 
L 684.9 224.551889 
L 684.9 224.551889 
" clip-path="url(#p7a8d455813)" style="fill: none; stroke: #5bc8ff; stroke-opacity: 0.9; stroke-width: 1.4; stroke-linecap: square"/>
   </g>
   <g id="patch_3">
    <path d="M 99 316.8 
L 99 46.8 
" style="fill: none; stroke: #2a3340; stroke-width: 0.8; stroke-linejoin: miter; stroke-linecap: square"/>
   </g>
   <g id="patch_4">
    <path d="M 712.8 316.8 
L 712.8 46.8 
" style="fill: none; stroke: #2a3340; stroke-width: 0.8; stroke-linejoin: miter; stroke-linecap: square"/>
   </g>
   <g id="patch_5">
    <path d="M 99 316.8 
L 712.8 316.8 
" style="fill: none; stroke: #2a3340; stroke-width: 0.8; stroke-linejoin: miter; stroke-linecap: square"/>
   </g>
   <g id="patch_6">
    <path d="M 99 46.8 
L 712.8 46.8 
" style="fill: none; stroke: #2a3340; stroke-width: 0.8; stroke-linejoin: miter; stroke-linecap: square"/>
   </g>
   <g id="legend_1">
    <g id="line2d_34">
     <path d="M 455.259063 61.208281 
L 466.259063 61.208281 
L 477.259063 61.208281 
" style="fill: none; stroke: #35e3b3; stroke-width: 1.6; stroke-linecap: square"/>
    </g>
    <g id="text_18">
     <!-- microphone (acoustic pi02−pi01) -->
     <g style="fill: #e6edf3" transform="translate(486.059063 65.058281) scale(0.11 -0.11)">
      <defs>
       <path id="DejaVuSans-52" d="M 1959 3097 
Q 1497 3097 1228 2736 
Q 959 2375 959 1747 
Q 959 1119 1226 758 
Q 1494 397 1959 397 
Q 2419 397 2687 759 
Q 2956 1122 2956 1747 
Q 2956 2369 2687 2733 
Q 2419 3097 1959 3097 
z
M 1959 3584 
Q 2709 3584 3137 3096 
Q 3566 2609 3566 1747 
Q 3566 888 3137 398 
Q 2709 -91 1959 -91 
Q 1206 -91 779 398 
Q 353 888 353 1747 
Q 353 2609 779 3096 
Q 1206 3584 1959 3584 
z
" transform="scale(0.015625)"/>
       <path id="DejaVuSans-4b" d="M 3513 2113 
L 3513 0 
L 2938 0 
L 2938 2094 
Q 2938 2591 2744 2837 
Q 2550 3084 2163 3084 
Q 1697 3084 1428 2787 
Q 1159 2491 1159 1978 
L 1159 0 
L 581 0 
L 581 4863 
L 1159 4863 
L 1159 2956 
Q 1366 3272 1645 3428 
Q 1925 3584 2291 3584 
Q 2894 3584 3203 3211 
Q 3513 2838 3513 2113 
z
" transform="scale(0.015625)"/>
      </defs>
      <use xlink:href="#DejaVuSans-50"/>
      <use xlink:href="#DejaVuSans-4c" transform="translate(97.40625 0)"/>
      <use xlink:href="#DejaVuSans-46" transform="translate(125.1875 0)"/>
      <use xlink:href="#DejaVuSans-55" transform="translate(180.171875 0)"/>
      <use xlink:href="#DejaVuSans-52" transform="translate(219.078125 0)"/>
      <use xlink:href="#DejaVuSans-53" transform="translate(280.265625 0)"/>
      <use xlink:href="#DejaVuSans-4b" transform="translate(343.75 0)"/>
      <use xlink:href="#DejaVuSans-52" transform="translate(407.125 0)"/>
      <use xlink:href="#DejaVuSans-51" transform="translate(468.3125 0)"/>
      <use xlink:href="#DejaVuSans-48" transform="translate(531.6875 0)"/>
      <use xlink:href="#DejaVuSans-3" transform="translate(593.21875 0)"/>
      <use xlink:href="#DejaVuSans-b" transform="translate(625 0)"/>
      <use xlink:href="#DejaVuSans-44" transform="translate(664.015625 0)"/>
      <use xlink:href="#DejaVuSans-46" transform="translate(725.296875 0)"/>
      <use xlink:href="#DejaVuSans-52" transform="translate(780.28125 0)"/>
      <use xlink:href="#DejaVuSans-58" transform="translate(841.46875 0)"/>
      <use xlink:href="#DejaVuSans-56" transform="translate(904.84375 0)"/>
      <use xlink:href="#DejaVuSans-57" transform="translate(956.9375 0)"/>
      <use xlink:href="#DejaVuSans-4c" transform="translate(996.140625 0)"/>
      <use xlink:href="#DejaVuSans-46" transform="translate(1023.921875 0)"/>
      <use xlink:href="#DejaVuSans-3" transform="translate(1078.90625 0)"/>
      <use xlink:href="#DejaVuSans-53" transform="translate(1110.6875 0)"/>
      <use xlink:href="#DejaVuSans-4c" transform="translate(1174.171875 0)"/>
      <use xlink:href="#DejaVuSans-13" transform="translate(1201.953125 0)"/>
      <use xlink:href="#DejaVuSans-15" transform="translate(1265.578125 0)"/>
      <use xlink:href="#DejaVuSans-c9c" transform="translate(1329.203125 0)"/>
      <use xlink:href="#DejaVuSans-53" transform="translate(1413 0)"/>
      <use xlink:href="#DejaVuSans-4c" transform="translate(1476.484375 0)"/>
      <use xlink:href="#DejaVuSans-13" transform="translate(1504.265625 0)"/>
      <use xlink:href="#DejaVuSans-14" transform="translate(1567.890625 0)"/>
      <use xlink:href="#DejaVuSans-c" transform="translate(1631.515625 0)"/>
     </g>
    </g>
    <g id="line2d_35">
     <path d="M 455.259063 77.709141 
L 466.259063 77.709141 
L 477.259063 77.709141 
" style="fill: none; stroke: #5bc8ff; stroke-opacity: 0.9; stroke-width: 1.4; stroke-linecap: square"/>
    </g>
    <g id="text_19">
     <!-- servo reported (clock offset pi02−pi01) -->
     <g style="fill: #e6edf3" transform="translate(486.059063 81.559141) scale(0.11 -0.11)">
      <defs>
       <path id="DejaVuSans-59" d="M 191 3500 
L 800 3500 
L 1894 563 
L 2988 3500 
L 3597 3500 
L 2284 0 
L 1503 0 
L 191 3500 
z
" transform="scale(0.015625)"/>
       <path id="DejaVuSans-4f" d="M 603 4863 
L 1178 4863 
L 1178 0 
L 603 0 
L 603 4863 
z
" transform="scale(0.015625)"/>
       <path id="DejaVuSans-13ae" d="M 4531 4863 
L 4531 4384 
L 3981 4384 
Q 3672 4384 3551 4259 
Q 3431 4134 3431 3809 
L 3431 3500 
L 4378 3500 
L 4378 3053 
L 3431 3053 
L 3431 0 
L 2853 0 
L 2853 3053 
L 1275 3053 
L 1275 0 
L 697 0 
L 697 3053 
L 147 3053 
L 147 3500 
L 697 3500 
L 697 3744 
Q 697 4328 969 4595 
Q 1241 4863 1831 4863 
L 2375 4863 
L 2375 4384 
L 1825 4384 
Q 1516 4384 1394 4259 
Q 1275 4134 1275 3809 
L 1275 3500 
L 2853 3500 
L 2853 3744 
Q 2853 4328 3125 4595 
Q 3397 4863 3988 4863 
L 4531 4863 
z
" transform="scale(0.015625)"/>
      </defs>
      <use xlink:href="#DejaVuSans-56"/>
      <use xlink:href="#DejaVuSans-48" transform="translate(52.09375 0)"/>
      <use xlink:href="#DejaVuSans-55" transform="translate(113.625 0)"/>
      <use xlink:href="#DejaVuSans-59" transform="translate(154.734375 0)"/>
      <use xlink:href="#DejaVuSans-52" transform="translate(213.921875 0)"/>
      <use xlink:href="#DejaVuSans-3" transform="translate(275.109375 0)"/>
      <use xlink:href="#DejaVuSans-55" transform="translate(306.890625 0)"/>
      <use xlink:href="#DejaVuSans-48" transform="translate(345.796875 0)"/>
      <use xlink:href="#DejaVuSans-53" transform="translate(407.328125 0)"/>
      <use xlink:href="#DejaVuSans-52" transform="translate(470.8125 0)"/>
      <use xlink:href="#DejaVuSans-55" transform="translate(532 0)"/>
      <use xlink:href="#DejaVuSans-57" transform="translate(573.109375 0)"/>
      <use xlink:href="#DejaVuSans-48" transform="translate(612.3125 0)"/>
      <use xlink:href="#DejaVuSans-47" transform="translate(673.84375 0)"/>
      <use xlink:href="#DejaVuSans-3" transform="translate(737.328125 0)"/>
      <use xlink:href="#DejaVuSans-b" transform="translate(769.109375 0)"/>
      <use xlink:href="#DejaVuSans-46" transform="translate(808.125 0)"/>
      <use xlink:href="#DejaVuSans-4f" transform="translate(863.109375 0)"/>
      <use xlink:href="#DejaVuSans-52" transform="translate(890.890625 0)"/>
      <use xlink:href="#DejaVuSans-46" transform="translate(952.078125 0)"/>
      <use xlink:href="#DejaVuSans-4e" transform="translate(1007.0625 0)"/>
      <use xlink:href="#DejaVuSans-3" transform="translate(1064.96875 0)"/>
      <use xlink:href="#DejaVuSans-52" transform="translate(1096.75 0)"/>
      <use xlink:href="#DejaVuSans-13ae" transform="translate(1157.9375 0)"/>
      <use xlink:href="#DejaVuSans-56" transform="translate(1226.828125 0)"/>
      <use xlink:href="#DejaVuSans-48" transform="translate(1278.921875 0)"/>
      <use xlink:href="#DejaVuSans-57" transform="translate(1340.453125 0)"/>
      <use xlink:href="#DejaVuSans-3" transform="translate(1379.65625 0)"/>
      <use xlink:href="#DejaVuSans-53" transform="translate(1411.4375 0)"/>
      <use xlink:href="#DejaVuSans-4c" transform="translate(1474.921875 0)"/>
      <use xlink:href="#DejaVuSans-13" transform="translate(1502.703125 0)"/>
      <use xlink:href="#DejaVuSans-15" transform="translate(1566.328125 0)"/>
      <use xlink:href="#DejaVuSans-c9c" transform="translate(1629.953125 0)"/>
      <use xlink:href="#DejaVuSans-53" transform="translate(1713.75 0)"/>
      <use xlink:href="#DejaVuSans-4c" transform="translate(1777.234375 0)"/>
      <use xlink:href="#DejaVuSans-13" transform="translate(1805.015625 0)"/>
      <use xlink:href="#DejaVuSans-14" transform="translate(1868.640625 0)"/>
      <use xlink:href="#DejaVuSans-c" transform="translate(1932.265625 0)"/>
     </g>
    </g>
   </g>
  </g>
  <g id="text_20">
   <!-- Microphone vs the servo's own clock telemetry -->
   <g style="fill: #e6edf3" transform="translate(71.28 18) scale(0.16 -0.16)">
    <defs>
     <path id="DejaVuSans-Bold-30" d="M 588 4666 
L 2119 4666 
L 3181 2169 
L 4250 4666 
L 5778 4666 
L 5778 0 
L 4641 0 
L 4641 3413 
L 3566 897 
L 2803 897 
L 1728 3413 
L 1728 0 
L 588 0 
L 588 4666 
z
" transform="scale(0.015625)"/>
     <path id="DejaVuSans-Bold-4c" d="M 538 3500 
L 1656 3500 
L 1656 0 
L 538 0 
L 538 3500 
z
M 538 4863 
L 1656 4863 
L 1656 3950 
L 538 3950 
L 538 4863 
z
" transform="scale(0.015625)"/>
     <path id="DejaVuSans-Bold-46" d="M 3366 3391 
L 3366 2478 
Q 3138 2634 2908 2709 
Q 2678 2784 2431 2784 
Q 1963 2784 1702 2511 
Q 1441 2238 1441 1747 
Q 1441 1256 1702 982 
Q 1963 709 2431 709 
Q 2694 709 2930 787 
Q 3166 866 3366 1019 
L 3366 103 
Q 3103 6 2833 -42 
Q 2563 -91 2291 -91 
Q 1344 -91 809 395 
Q 275 881 275 1747 
Q 275 2613 809 3098 
Q 1344 3584 2291 3584 
Q 2566 3584 2833 3536 
Q 3100 3488 3366 3391 
z
" transform="scale(0.015625)"/>
     <path id="DejaVuSans-Bold-55" d="M 3138 2547 
Q 2991 2616 2845 2648 
Q 2700 2681 2553 2681 
Q 2122 2681 1889 2404 
Q 1656 2128 1656 1613 
L 1656 0 
L 538 0 
L 538 3500 
L 1656 3500 
L 1656 2925 
Q 1872 3269 2151 3426 
Q 2431 3584 2822 3584 
Q 2878 3584 2943 3579 
Q 3009 3575 3134 3559 
L 3138 2547 
z
" transform="scale(0.015625)"/>
     <path id="DejaVuSans-Bold-52" d="M 2203 2784 
Q 1831 2784 1636 2517 
Q 1441 2250 1441 1747 
Q 1441 1244 1636 976 
Q 1831 709 2203 709 
Q 2569 709 2762 976 
Q 2956 1244 2956 1747 
Q 2956 2250 2762 2517 
Q 2569 2784 2203 2784 
z
M 2203 3584 
Q 3106 3584 3614 3096 
Q 4122 2609 4122 1747 
Q 4122 884 3614 396 
Q 3106 -91 2203 -91 
Q 1297 -91 786 396 
Q 275 884 275 1747 
Q 275 2609 786 3096 
Q 1297 3584 2203 3584 
z
" transform="scale(0.015625)"/>
     <path id="DejaVuSans-Bold-53" d="M 1656 506 
L 1656 -1331 
L 538 -1331 
L 538 3500 
L 1656 3500 
L 1656 2988 
Q 1888 3294 2169 3439 
Q 2450 3584 2816 3584 
Q 3463 3584 3878 3070 
Q 4294 2556 4294 1747 
Q 4294 938 3878 423 
Q 3463 -91 2816 -91 
Q 2450 -91 2169 54 
Q 1888 200 1656 506 
z
M 2400 2772 
Q 2041 2772 1848 2508 
Q 1656 2244 1656 1747 
Q 1656 1250 1848 986 
Q 2041 722 2400 722 
Q 2759 722 2948 984 
Q 3138 1247 3138 1747 
Q 3138 2247 2948 2509 
Q 2759 2772 2400 2772 
z
" transform="scale(0.015625)"/>
     <path id="DejaVuSans-Bold-4b" d="M 4056 2131 
L 4056 0 
L 2931 0 
L 2931 347 
L 2931 1625 
Q 2931 2084 2911 2256 
Q 2891 2428 2841 2509 
Q 2775 2619 2662 2680 
Q 2550 2741 2406 2741 
Q 2056 2741 1856 2470 
Q 1656 2200 1656 1722 
L 1656 0 
L 538 0 
L 538 4863 
L 1656 4863 
L 1656 2988 
Q 1909 3294 2193 3439 
Q 2478 3584 2822 3584 
Q 3428 3584 3742 3212 
Q 4056 2841 4056 2131 
z
" transform="scale(0.015625)"/>
     <path id="DejaVuSans-Bold-51" d="M 4056 2131 
L 4056 0 
L 2931 0 
L 2931 347 
L 2931 1631 
Q 2931 2084 2911 2256 
Q 2891 2428 2841 2509 
Q 2775 2619 2662 2680 
Q 2550 2741 2406 2741 
Q 2056 2741 1856 2470 
Q 1656 2200 1656 1722 
L 1656 0 
L 538 0 
L 538 3500 
L 1656 3500 
L 1656 2988 
Q 1909 3294 2193 3439 
Q 2478 3584 2822 3584 
Q 3428 3584 3742 3212 
Q 4056 2841 4056 2131 
z
" transform="scale(0.015625)"/>
     <path id="DejaVuSans-Bold-48" d="M 4031 1759 
L 4031 1441 
L 1416 1441 
Q 1456 1047 1700 850 
Q 1944 653 2381 653 
Q 2734 653 3104 758 
Q 3475 863 3866 1075 
L 3866 213 
Q 3469 63 3072 -14 
Q 2675 -91 2278 -91 
Q 1328 -91 801 392 
Q 275 875 275 1747 
Q 275 2603 792 3093 
Q 1309 3584 2216 3584 
Q 3041 3584 3536 3087 
Q 4031 2591 4031 1759 
z
M 2881 2131 
Q 2881 2450 2695 2645 
Q 2509 2841 2209 2841 
Q 1884 2841 1681 2658 
Q 1478 2475 1428 2131 
L 2881 2131 
z
" transform="scale(0.015625)"/>
     <path id="DejaVuSans-Bold-3" transform="scale(0.015625)"/>
     <path id="DejaVuSans-Bold-59" d="M 97 3500 
L 1216 3500 
L 2088 1081 
L 2956 3500 
L 4078 3500 
L 2700 0 
L 1472 0 
L 97 3500 
z
" transform="scale(0.015625)"/>
     <path id="DejaVuSans-Bold-56" d="M 3272 3391 
L 3272 2541 
Q 2913 2691 2578 2766 
Q 2244 2841 1947 2841 
Q 1628 2841 1473 2761 
Q 1319 2681 1319 2516 
Q 1319 2381 1436 2309 
Q 1553 2238 1856 2203 
L 2053 2175 
Q 2913 2066 3209 1816 
Q 3506 1566 3506 1031 
Q 3506 472 3093 190 
Q 2681 -91 1863 -91 
Q 1516 -91 1145 -36 
Q 775 19 384 128 
L 384 978 
Q 719 816 1070 734 
Q 1422 653 1784 653 
Q 2113 653 2278 743 
Q 2444 834 2444 1013 
Q 2444 1163 2330 1236 
Q 2216 1309 1875 1350 
L 1678 1375 
Q 931 1469 631 1722 
Q 331 1975 331 2491 
Q 331 3047 712 3315 
Q 1094 3584 1881 3584 
Q 2191 3584 2531 3537 
Q 2872 3491 3272 3391 
z
" transform="scale(0.015625)"/>
     <path id="DejaVuSans-Bold-57" d="M 1759 4494 
L 1759 3500 
L 2913 3500 
L 2913 2700 
L 1759 2700 
L 1759 1216 
Q 1759 972 1856 886 
Q 1953 800 2241 800 
L 2816 800 
L 2816 0 
L 1856 0 
Q 1194 0 917 276 
Q 641 553 641 1216 
L 641 2700 
L 84 2700 
L 84 3500 
L 641 3500 
L 641 4494 
L 1759 4494 
z
" transform="scale(0.015625)"/>
     <path id="DejaVuSans-Bold-a" d="M 1350 4666 
L 1350 2931 
L 609 2931 
L 609 4666 
L 1350 4666 
z
" transform="scale(0.015625)"/>
     <path id="DejaVuSans-Bold-5a" d="M 225 3500 
L 1313 3500 
L 1900 1088 
L 2491 3500 
L 3425 3500 
L 4013 1113 
L 4603 3500 
L 5691 3500 
L 4769 0 
L 3547 0 
L 2956 2406 
L 2369 0 
L 1147 0 
L 225 3500 
z
" transform="scale(0.015625)"/>
     <path id="DejaVuSans-Bold-4f" d="M 538 4863 
L 1656 4863 
L 1656 0 
L 538 0 
L 538 4863 
z
" transform="scale(0.015625)"/>
     <path id="DejaVuSans-Bold-4e" d="M 538 4863 
L 1656 4863 
L 1656 2216 
L 2944 3500 
L 4244 3500 
L 2534 1894 
L 4378 0 
L 3022 0 
L 1656 1459 
L 1656 0 
L 538 0 
L 538 4863 
z
" transform="scale(0.015625)"/>
     <path id="DejaVuSans-Bold-50" d="M 3781 2919 
Q 3994 3244 4286 3414 
Q 4578 3584 4928 3584 
Q 5531 3584 5847 3212 
Q 6163 2841 6163 2131 
L 6163 0 
L 5038 0 
L 5038 1825 
Q 5041 1866 5042 1909 
Q 5044 1953 5044 2034 
Q 5044 2406 4934 2573 
Q 4825 2741 4581 2741 
Q 4263 2741 4089 2478 
Q 3916 2216 3909 1719 
L 3909 0 
L 2784 0 
L 2784 1825 
Q 2784 2406 2684 2573 
Q 2584 2741 2328 2741 
Q 2006 2741 1831 2477 
Q 1656 2213 1656 1722 
L 1656 0 
L 531 0 
L 531 3500 
L 1656 3500 
L 1656 2988 
Q 1863 3284 2130 3434 
Q 2397 3584 2719 3584 
Q 3081 3584 3359 3409 
Q 3638 3234 3781 2919 
z
" transform="scale(0.015625)"/>
     <path id="DejaVuSans-Bold-5c" d="M 78 3500 
L 1197 3500 
L 2138 1125 
L 2938 3500 
L 4056 3500 
L 2584 -331 
Q 2363 -916 2067 -1148 
Q 1772 -1381 1288 -1381 
L 641 -1381 
L 641 -647 
L 991 -647 
Q 1275 -647 1404 -556 
Q 1534 -466 1606 -231 
L 1638 -134 
L 78 3500 
z
" transform="scale(0.015625)"/>
    </defs>
    <use xlink:href="#DejaVuSans-Bold-30"/>
    <use xlink:href="#DejaVuSans-Bold-4c" transform="translate(99.515625 0)"/>
    <use xlink:href="#DejaVuSans-Bold-46" transform="translate(133.796875 0)"/>
    <use xlink:href="#DejaVuSans-Bold-55" transform="translate(193.078125 0)"/>
    <use xlink:href="#DejaVuSans-Bold-52" transform="translate(242.390625 0)"/>
    <use xlink:href="#DejaVuSans-Bold-53" transform="translate(311.09375 0)"/>
    <use xlink:href="#DejaVuSans-Bold-4b" transform="translate(382.671875 0)"/>
    <use xlink:href="#DejaVuSans-Bold-52" transform="translate(453.859375 0)"/>
    <use xlink:href="#DejaVuSans-Bold-51" transform="translate(522.5625 0)"/>
    <use xlink:href="#DejaVuSans-Bold-48" transform="translate(593.75 0)"/>
    <use xlink:href="#DejaVuSans-Bold-3" transform="translate(661.578125 0)"/>
    <use xlink:href="#DejaVuSans-Bold-59" transform="translate(696.390625 0)"/>
    <use xlink:href="#DejaVuSans-Bold-56" transform="translate(761.578125 0)"/>
    <use xlink:href="#DejaVuSans-Bold-3" transform="translate(821.09375 0)"/>
    <use xlink:href="#DejaVuSans-Bold-57" transform="translate(855.90625 0)"/>
    <use xlink:href="#DejaVuSans-Bold-4b" transform="translate(903.703125 0)"/>
    <use xlink:href="#DejaVuSans-Bold-48" transform="translate(974.890625 0)"/>
    <use xlink:href="#DejaVuSans-Bold-3" transform="translate(1042.71875 0)"/>
    <use xlink:href="#DejaVuSans-Bold-56" transform="translate(1077.53125 0)"/>
    <use xlink:href="#DejaVuSans-Bold-48" transform="translate(1137.046875 0)"/>
    <use xlink:href="#DejaVuSans-Bold-55" transform="translate(1204.875 0)"/>
    <use xlink:href="#DejaVuSans-Bold-59" transform="translate(1254.1875 0)"/>
    <use xlink:href="#DejaVuSans-Bold-52" transform="translate(1319.375 0)"/>
    <use xlink:href="#DejaVuSans-Bold-a" transform="translate(1388.078125 0)"/>
    <use xlink:href="#DejaVuSans-Bold-56" transform="translate(1418.6875 0)"/>
    <use xlink:href="#DejaVuSans-Bold-3" transform="translate(1478.203125 0)"/>
    <use xlink:href="#DejaVuSans-Bold-52" transform="translate(1513.015625 0)"/>
    <use xlink:href="#DejaVuSans-Bold-5a" transform="translate(1581.71875 0)"/>
    <use xlink:href="#DejaVuSans-Bold-51" transform="translate(1674.109375 0)"/>
    <use xlink:href="#DejaVuSans-Bold-3" transform="translate(1745.296875 0)"/>
    <use xlink:href="#DejaVuSans-Bold-46" transform="translate(1780.109375 0)"/>
    <use xlink:href="#DejaVuSans-Bold-4f" transform="translate(1839.390625 0)"/>
    <use xlink:href="#DejaVuSans-Bold-52" transform="translate(1873.671875 0)"/>
    <use xlink:href="#DejaVuSans-Bold-46" transform="translate(1942.375 0)"/>
    <use xlink:href="#DejaVuSans-Bold-4e" transform="translate(2001.65625 0)"/>
    <use xlink:href="#DejaVuSans-Bold-3" transform="translate(2068.15625 0)"/>
    <use xlink:href="#DejaVuSans-Bold-57" transform="translate(2102.96875 0)"/>
    <use xlink:href="#DejaVuSans-Bold-48" transform="translate(2150.765625 0)"/>
    <use xlink:href="#DejaVuSans-Bold-4f" transform="translate(2218.59375 0)"/>
    <use xlink:href="#DejaVuSans-Bold-48" transform="translate(2252.875 0)"/>
    <use xlink:href="#DejaVuSans-Bold-50" transform="translate(2320.703125 0)"/>
    <use xlink:href="#DejaVuSans-Bold-48" transform="translate(2424.90625 0)"/>
    <use xlink:href="#DejaVuSans-Bold-57" transform="translate(2492.734375 0)"/>
    <use xlink:href="#DejaVuSans-Bold-55" transform="translate(2540.53125 0)"/>
    <use xlink:href="#DejaVuSans-Bold-5c" transform="translate(2589.84375 0)"/>
   </g>
  </g>
  <g id="text_21">
   <!-- • -->
   <g style="fill: #35e3b3" transform="translate(49.896 16.2) scale(0.17 -0.17)">
    <defs>
     <path id="DejaVuSans-b04" d="M 959 2381 
Q 959 2769 1229 3036 
Q 1500 3303 1894 3303 
Q 2281 3303 2548 3036 
Q 2816 2769 2816 2381 
Q 2816 1991 2547 1722 
Q 2278 1453 1888 1453 
Q 1497 1453 1228 1722 
Q 959 1991 959 2381 
z
" transform="scale(0.015625)"/>
    </defs>
    <use xlink:href="#DejaVuSans-b04"/>
   </g>
  </g>
  <g id="text_22">
   <!-- r = +0.20 -->
   <g style="fill: #35e3b3" transform="translate(676.215 18) scale(0.18 -0.18)">
    <defs>
     <path id="DejaVuSans-Bold-20" d="M 678 3084 
L 4684 3084 
L 4684 2350 
L 678 2350 
L 678 3084 
z
M 678 1663 
L 4684 1663 
L 4684 922 
L 678 922 
L 678 1663 
z
" transform="scale(0.015625)"/>
     <path id="DejaVuSans-Bold-e" d="M 3053 4013 
L 3053 2375 
L 4684 2375 
L 4684 1638 
L 3053 1638 
L 3053 0 
L 2309 0 
L 2309 1638 
L 678 1638 
L 678 2375 
L 2309 2375 
L 2309 4013 
L 3053 4013 
z
" transform="scale(0.015625)"/>
     <path id="DejaVuSans-Bold-13" d="M 2944 2338 
Q 2944 3213 2780 3570 
Q 2616 3928 2228 3928 
Q 1841 3928 1675 3570 
Q 1509 3213 1509 2338 
Q 1509 1453 1675 1090 
Q 1841 728 2228 728 
Q 2613 728 2778 1090 
Q 2944 1453 2944 2338 
z
M 4147 2328 
Q 4147 1169 3647 539 
Q 3147 -91 2228 -91 
Q 1306 -91 806 539 
Q 306 1169 306 2328 
Q 306 3491 806 4120 
Q 1306 4750 2228 4750 
Q 3147 4750 3647 4120 
Q 4147 3491 4147 2328 
z
" transform="scale(0.015625)"/>
     <path id="DejaVuSans-Bold-11" d="M 653 1209 
L 1778 1209 
L 1778 0 
L 653 0 
L 653 1209 
z
" transform="scale(0.015625)"/>
     <path id="DejaVuSans-Bold-15" d="M 1844 884 
L 3897 884 
L 3897 0 
L 506 0 
L 506 884 
L 2209 2388 
Q 2438 2594 2547 2791 
Q 2656 2988 2656 3200 
Q 2656 3528 2436 3728 
Q 2216 3928 1850 3928 
Q 1569 3928 1234 3808 
Q 900 3688 519 3450 
L 519 4475 
Q 925 4609 1322 4679 
Q 1719 4750 2100 4750 
Q 2938 4750 3402 4381 
Q 3866 4013 3866 3353 
Q 3866 2972 3669 2642 
Q 3472 2313 2841 1759 
L 1844 884 
z
" transform="scale(0.015625)"/>
    </defs>
    <use xlink:href="#DejaVuSans-Bold-55"/>
    <use xlink:href="#DejaVuSans-Bold-3" transform="translate(49.3125 0)"/>
    <use xlink:href="#DejaVuSans-Bold-20" transform="translate(84.125 0)"/>
    <use xlink:href="#DejaVuSans-Bold-3" transform="translate(167.921875 0)"/>
    <use xlink:href="#DejaVuSans-Bold-e" transform="translate(202.734375 0)"/>
    <use xlink:href="#DejaVuSans-Bold-13" transform="translate(286.53125 0)"/>
    <use xlink:href="#DejaVuSans-Bold-11" transform="translate(356.109375 0)"/>
    <use xlink:href="#DejaVuSans-Bold-15" transform="translate(394.09375 0)"/>
    <use xlink:href="#DejaVuSans-Bold-13" transform="translate(463.671875 0)"/>
   </g>
  </g>
  <g id="text_23">
   <!-- microphone vs servo telemetry · 12 min -->
   <g style="fill: #8b97a7" transform="translate(295.68125 358.2) scale(0.1 -0.1)">
    <defs>
     <path id="DejaVuSans-5c" d="M 2059 -325 
Q 1816 -950 1584 -1140 
Q 1353 -1331 966 -1331 
L 506 -1331 
L 506 -850 
L 844 -850 
Q 1081 -850 1212 -737 
Q 1344 -625 1503 -206 
L 1606 56 
L 191 3500 
L 800 3500 
L 1894 763 
L 2988 3500 
L 3597 3500 
L 2059 -325 
z
" transform="scale(0.015625)"/>
     <path id="DejaVuSans-79" d="M 684 2619 
L 1344 2619 
L 1344 1825 
L 684 1825 
L 684 2619 
z
" transform="scale(0.015625)"/>
    </defs>
    <use xlink:href="#DejaVuSans-50"/>
    <use xlink:href="#DejaVuSans-4c" transform="translate(97.40625 0)"/>
    <use xlink:href="#DejaVuSans-46" transform="translate(125.1875 0)"/>
    <use xlink:href="#DejaVuSans-55" transform="translate(180.171875 0)"/>
    <use xlink:href="#DejaVuSans-52" transform="translate(219.078125 0)"/>
    <use xlink:href="#DejaVuSans-53" transform="translate(280.265625 0)"/>
    <use xlink:href="#DejaVuSans-4b" transform="translate(343.75 0)"/>
    <use xlink:href="#DejaVuSans-52" transform="translate(407.125 0)"/>
    <use xlink:href="#DejaVuSans-51" transform="translate(468.3125 0)"/>
    <use xlink:href="#DejaVuSans-48" transform="translate(531.6875 0)"/>
    <use xlink:href="#DejaVuSans-3" transform="translate(593.21875 0)"/>
    <use xlink:href="#DejaVuSans-59" transform="translate(625 0)"/>
    <use xlink:href="#DejaVuSans-56" transform="translate(684.1875 0)"/>
    <use xlink:href="#DejaVuSans-3" transform="translate(736.28125 0)"/>
    <use xlink:href="#DejaVuSans-56" transform="translate(768.0625 0)"/>
    <use xlink:href="#DejaVuSans-48" transform="translate(820.15625 0)"/>
    <use xlink:href="#DejaVuSans-55" transform="translate(881.6875 0)"/>
    <use xlink:href="#DejaVuSans-59" transform="translate(922.796875 0)"/>
    <use xlink:href="#DejaVuSans-52" transform="translate(981.984375 0)"/>
    <use xlink:href="#DejaVuSans-3" transform="translate(1043.171875 0)"/>
    <use xlink:href="#DejaVuSans-57" transform="translate(1074.953125 0)"/>
    <use xlink:href="#DejaVuSans-48" transform="translate(1114.15625 0)"/>
    <use xlink:href="#DejaVuSans-4f" transform="translate(1175.6875 0)"/>
    <use xlink:href="#DejaVuSans-48" transform="translate(1203.46875 0)"/>
    <use xlink:href="#DejaVuSans-50" transform="translate(1265 0)"/>
    <use xlink:href="#DejaVuSans-48" transform="translate(1362.40625 0)"/>
    <use xlink:href="#DejaVuSans-57" transform="translate(1423.9375 0)"/>
    <use xlink:href="#DejaVuSans-55" transform="translate(1463.140625 0)"/>
    <use xlink:href="#DejaVuSans-5c" transform="translate(1504.25 0)"/>
    <use xlink:href="#DejaVuSans-3" transform="translate(1563.4375 0)"/>
    <use xlink:href="#DejaVuSans-79" transform="translate(1595.21875 0)"/>
    <use xlink:href="#DejaVuSans-3" transform="translate(1627 0)"/>
    <use xlink:href="#DejaVuSans-14" transform="translate(1658.78125 0)"/>
    <use xlink:href="#DejaVuSans-15" transform="translate(1722.40625 0)"/>
    <use xlink:href="#DejaVuSans-3" transform="translate(1786.03125 0)"/>
    <use xlink:href="#DejaVuSans-50" transform="translate(1817.8125 0)"/>
    <use xlink:href="#DejaVuSans-4c" transform="translate(1915.21875 0)"/>
    <use xlink:href="#DejaVuSans-51" transform="translate(1943 0)"/>
   </g>
  </g>
 </g>
 <defs>
  <clipPath id="p7a8d455813">
   <rect x="99" y="46.8" width="613.8" height="270"/>
  </clipPath>
 </defs>
</svg>
